<svg width="200" height="42" viewBox="0 0 200 42" fill="none" xmlns="http://www.w3.org/2000/svg">
<path fill-rule="evenodd" clip-rule="evenodd" d="M163.997 39.6767C164.379 39.7061 165.202 39.6767 165.143 40.2939C165.173 40.9111 164.409 40.8229 163.997 40.8523C163.997 40.4702 163.997 40.0882 163.997 39.6767ZM106.863 39.6767C107.274 39.7061 108.068 39.6767 108.009 40.2939C108.038 40.9111 107.274 40.7935 106.863 40.8523C106.833 40.4702 106.833 40.0882 106.863 39.6767ZM130.61 40C130.757 39.5298 130.933 39.0301 131.109 38.5599C131.286 39.0301 131.462 39.5004 131.638 39.9706L130.61 40ZM160.206 40C160.353 39.5298 160.529 39.0301 160.705 38.5599C160.882 39.0301 161.058 39.5004 161.234 40H160.206ZM116.356 40C116.532 39.5298 116.708 39.0595 116.855 38.5599C117.032 39.0301 117.237 39.5004 117.384 40H116.356ZM156.414 38.4129C156.855 38.4423 157.649 38.4129 157.502 39.0595C157.502 39.6473 156.796 39.5298 156.414 39.5885C156.414 39.2065 156.414 38.795 156.414 38.4129ZM146.187 39.5885C146.187 39.2065 146.187 38.795 146.187 38.4129C146.627 38.4423 147.421 38.4129 147.303 39.0595C147.274 39.6473 146.569 39.5591 146.187 39.5885ZM138.692 40.8523C138.692 40.0588 138.692 39.2359 138.692 38.4129C139.28 38.4423 140.073 38.4129 140.309 39.0595C140.426 39.5298 140.456 40.1469 140.073 40.4996C139.721 40.8817 139.133 40.7935 138.692 40.8523ZM106.863 38.3835C107.215 38.4423 107.568 38.5305 107.891 38.6187C107.803 38.8832 107.891 39.324 107.509 39.3828L106.863 39.5004C106.863 39.1183 106.833 38.7656 106.863 38.3835ZM100.25 38.4129C100.749 38.4717 101.337 38.3835 101.719 38.795C102.072 39.2946 102.043 40.0294 101.631 40.4996C101.278 40.8817 100.72 40.7935 100.25 40.8523C100.22 40.0294 100.22 39.2359 100.25 38.4129ZM82.5569 38.4129C82.9978 38.4129 83.7619 38.4129 83.6738 39.0595C83.6444 39.6473 82.9684 39.5298 82.5569 39.5885C82.5569 39.2065 82.5569 38.795 82.5569 38.4129ZM168.17 38.4423C168.641 38.266 169.258 38.4129 169.464 38.9126C169.846 39.6473 169.581 40.8523 168.611 40.9111C167.289 41.0287 167.054 38.8832 168.17 38.4423ZM163.997 38.4129C164.35 38.4423 164.673 38.5011 164.996 38.6187C164.996 38.795 164.938 39.1477 164.908 39.324L163.997 39.5004C163.997 39.1183 163.997 38.7656 163.997 38.4129ZM76.0911 38.4129C76.5907 38.4717 77.2079 38.3835 77.5606 38.8244C77.8839 39.2946 77.8545 40 77.5018 40.4702C77.1492 40.8817 76.5613 40.7935 76.0617 40.8229C76.0617 40.0294 76.0617 39.2359 76.0911 38.4129ZM184.511 38.119C185.187 38.3248 185.217 39.1771 185.599 39.6767C185.893 39.1183 186.157 38.5305 186.539 38.0015C186.627 38.5305 186.216 38.9713 186.01 39.4416C185.658 39.9706 185.775 40.6466 185.628 41.2344C185.422 40.7641 185.511 40.2645 185.364 39.7943C185.07 39.2652 184.747 38.7362 184.511 38.119ZM182.513 38.2072C182.601 38.2072 182.748 38.2072 182.807 38.1778C182.777 39.2065 182.895 40.2351 182.719 41.2638C182.542 41.0287 182.454 40.7641 182.483 40.4996C182.513 39.7355 182.513 38.9713 182.513 38.2072ZM178.927 38.2072C179.015 38.2072 179.162 38.2072 179.221 38.1778C179.221 38.6187 179.221 39.0595 179.251 39.5004C179.75 39.0007 180.103 38.3248 180.779 38.0602C180.426 38.6187 179.956 39.0889 179.515 39.5591C179.956 40.0882 180.514 40.529 180.808 41.1756C180.162 40.9111 179.809 40.2351 179.28 39.7943C179.251 40.2645 179.221 40.7641 179.162 41.2638C178.692 40.3527 179.045 39.2359 178.927 38.2072ZM175.459 38.8832C175.489 38.119 176.694 37.8251 177.134 38.4423C176.723 38.4717 176.165 38.2366 175.841 38.5893C175.547 39.2359 176.341 39.4416 176.723 39.7355C177.223 39.9706 177.281 40.7348 176.811 40.9993C176.429 41.2638 175.929 41.1168 175.489 41.0874C175.489 40.9993 175.43 40.8229 175.4 40.7348C175.841 40.8229 176.341 41.0287 176.723 40.7054C177.134 39.7355 175.4 39.7943 175.459 38.8832ZM171.462 38.0602C172.168 38.7068 172.168 39.7649 172.608 40.5878C173.079 39.7943 173.167 38.7656 173.755 38.0602C173.755 38.7656 173.373 39.4122 173.167 40.0588C172.99 40.4702 172.902 40.9405 172.52 41.205C172.168 40.1469 171.668 39.1477 171.462 38.0602ZM167.965 38.2366C168.817 37.7957 169.904 38.4423 169.934 39.4122C170.11 40.3527 169.317 41.4107 168.288 41.1462C166.907 40.9405 166.76 38.7656 167.965 38.2366ZM163.703 38.1778C164.203 38.2366 164.908 38.0309 165.231 38.5305C165.467 38.8832 165.173 39.2359 164.967 39.5298C165.32 39.7649 165.614 40.2057 165.349 40.6172C165.055 41.2344 164.232 41.058 163.674 41.0874C163.703 40.1176 163.703 39.1477 163.703 38.1778ZM160.617 38.0896C160.999 38.3248 161.087 38.7656 161.234 39.1183C161.469 39.8237 161.822 40.4996 161.94 41.2344C161.616 40.9993 161.47 40.6172 161.323 40.2645C160.94 40.2645 160.529 40.2645 160.147 40.2645C160 40.6172 159.853 40.9405 159.647 41.2638C159.559 41.0287 159.559 40.8229 159.647 40.6172C159.971 39.7649 160.294 38.942 160.617 38.0896ZM156.12 38.1778C156.679 38.2072 157.443 38.0309 157.766 38.5893C158.001 39.0595 157.678 39.5004 157.296 39.7649C157.59 40.2057 157.825 40.6466 158.031 41.1168C157.943 41.1168 157.796 41.0874 157.708 41.058C157.414 40.529 157.179 39.7355 156.444 39.7649C156.414 40.2645 156.444 40.7641 156.297 41.2638C155.974 40.2939 156.209 39.2065 156.12 38.1778ZM152.623 38.266C153.123 38.0309 153.857 38.0015 154.24 38.4717C153.828 38.4717 153.387 38.3541 152.976 38.4129C152.065 38.7068 151.888 40.0588 152.535 40.6466C152.917 40.9699 153.446 40.8817 153.887 40.7935V39.8824C153.74 39.8824 153.417 39.8824 153.27 39.8824V39.6179C153.564 39.6179 153.887 39.6179 154.181 39.6179C154.181 40.0588 154.181 40.4702 154.181 40.9111C153.652 41.0874 153.064 41.2638 152.535 40.9993C151.536 40.4702 151.624 38.7656 152.623 38.266ZM145.893 38.1778C146.451 38.2072 147.303 38.0015 147.597 38.6774C147.744 39.1477 147.421 39.5004 147.068 39.7649C147.333 40.1763 147.597 40.6172 147.832 41.058C147.744 41.058 147.597 41.0874 147.509 41.0874C147.186 40.5584 146.98 39.7061 146.187 39.7649C146.187 40.2057 146.187 40.6466 146.187 41.0874H145.893V38.1778ZM142.572 38.1778C143.101 38.2072 143.688 38.0309 144.129 38.3835C143.688 38.4423 143.277 38.4423 142.836 38.4423V39.5004C143.218 39.5004 143.688 39.471 144.041 39.6767C143.659 39.7649 143.218 39.7943 142.836 39.8237C142.836 40.1469 142.836 40.4702 142.836 40.7935C143.277 40.8229 143.747 40.8229 144.188 40.9111C143.718 41.2344 143.101 41.058 142.542 41.0874C142.572 40.1176 142.572 39.1771 142.572 38.1778ZM138.369 38.2072C139.074 38.2072 139.927 38.0602 140.426 38.6774C140.896 39.3534 140.779 40.4409 140.044 40.8817C139.544 41.205 138.927 41.1168 138.369 41.1168C138.369 40.1469 138.369 39.1771 138.369 38.2072ZM134.078 38.1778H134.431C134.96 38.9713 135.547 39.7943 136.076 40.5878C136.106 39.8237 136.047 39.0595 136.106 38.2954L136.37 38.0602C136.4 39.1183 136.429 40.1469 136.341 41.205C135.518 40.4996 135.048 39.471 134.401 38.6481C134.401 39.471 134.401 40.2645 134.401 41.0874C134.313 41.0874 134.195 41.0874 134.107 41.0874V38.1778H134.078ZM130.963 38.2072H131.256C131.521 38.7656 131.727 39.3828 131.962 39.9706C132.109 40.3821 132.373 40.8229 132.226 41.2638C132.021 40.9405 131.874 40.5878 131.697 40.2645C131.315 40.2645 130.904 40.2645 130.492 40.2645C130.345 40.5878 130.257 41.0287 129.875 41.1756C130.169 40.1763 130.551 39.1771 130.963 38.2072ZM127.112 39.6179C126.848 39.0889 126.289 38.6481 126.378 38.0015C126.73 38.3835 126.995 38.8538 127.259 39.324C127.641 38.9126 127.847 38.3248 128.376 38.0602C128.17 38.5893 127.818 39.0595 127.553 39.5885C127.759 40.1176 128.112 40.5878 128.406 41.0874H128.053C127.818 40.676 127.553 40.2645 127.318 39.8531C127.024 40.3233 126.73 40.8229 126.319 41.205C126.348 40.6172 126.819 40.1469 127.112 39.6179ZM123.086 38.1778C123.615 38.2072 124.203 38.0309 124.644 38.3835C124.203 38.4423 123.791 38.4423 123.35 38.4423C123.35 38.795 123.35 39.1477 123.35 39.5004C123.703 39.5004 124.056 39.5004 124.438 39.5004L124.409 39.7649C124.056 39.7649 123.703 39.7649 123.38 39.7649C123.38 40.1176 123.38 40.4702 123.38 40.7935C123.762 40.7935 124.173 40.7935 124.585 40.7935L124.614 41.058C124.085 41.058 123.586 41.058 123.086 41.058C123.086 40.1176 123.057 39.1477 123.086 38.1778ZM119.882 38.1778C119.941 38.1778 120.088 38.1778 120.147 38.1778C120.147 39.0301 120.147 39.9118 120.147 40.7935C120.588 40.8229 121.087 40.7054 121.44 41.0287C120.911 41.0874 120.382 41.0874 119.853 41.0874C119.853 40.1176 119.853 39.1771 119.882 38.1778ZM116.767 38.2072C116.826 38.2072 116.943 38.1778 117.002 38.1484C117.472 39.1183 117.766 40.1469 118.148 41.1168C117.678 41.1168 117.678 40.5584 117.502 40.2645C117.09 40.2645 116.679 40.2645 116.267 40.2645C116.091 40.5878 116.062 41.0874 115.621 41.1756C115.974 40.1763 116.326 39.1771 116.767 38.2072ZM109.743 38.0309C110.272 38.4423 110.448 39.1183 110.771 39.6767C111.095 39.1183 111.271 38.4129 111.83 38.0309C111.683 38.6774 111.301 39.2065 111.007 39.7943C110.86 40.2645 110.918 40.7641 110.742 41.2344C110.595 40.7641 110.654 40.2645 110.507 39.7943C110.242 39.2359 109.86 38.7068 109.743 38.0309ZM106.539 38.1778C107.039 38.2366 107.744 38.0309 108.068 38.5305C108.303 38.8832 108.038 39.2652 107.803 39.5298C108.156 39.7649 108.45 40.2057 108.215 40.6172C107.921 41.2344 107.098 41.058 106.539 41.0874C106.539 40.1469 106.539 39.1477 106.539 38.1778ZM99.9559 38.1778C100.485 38.2072 101.014 38.1484 101.514 38.3248C102.513 38.7362 102.513 40.3233 101.631 40.8523C101.132 41.1756 100.514 41.0874 99.9559 41.1168C99.9265 40.1469 99.9265 39.1477 99.9559 38.1778ZM96.6054 38.2072C97.0757 38.2072 97.5753 38.2072 98.0456 38.2072L98.0162 38.4423H96.8993C96.8993 38.795 96.8993 39.1477 96.8993 39.5298C97.252 39.5298 97.6047 39.5298 97.9574 39.5298V39.7943C97.6047 39.7943 97.252 39.7943 96.8993 39.7943V40.8229C97.3108 40.8229 97.6929 40.8229 98.1043 40.8229V41.0874C97.6047 41.0874 97.1051 41.0874 96.6054 41.0874C96.6054 40.1176 96.6054 39.1771 96.6054 38.2072ZM92.7847 38.2366C93.5195 38.2366 94.313 38.0309 95.0184 38.3835C94.6951 38.4423 94.3424 38.4717 94.0191 38.5011V41.1168C93.9309 41.1168 93.784 41.1168 93.7252 41.1168V38.5011C93.4019 38.4129 93.0198 38.5011 92.7847 38.2366ZM89.9045 38.266C90.3747 38.0309 91.0213 37.9721 91.374 38.4129C90.9625 38.4129 90.5805 38.3248 90.169 38.4129C89.2579 38.7362 89.0816 40.1763 89.8751 40.7348C90.3453 41.0287 90.8744 40.8229 91.374 40.8229C90.845 41.3519 89.8751 41.2932 89.4048 40.7054C88.8464 39.9706 89.0522 38.7068 89.9045 38.266ZM85.878 38.2072C86.4071 38.1778 86.9361 38.1778 87.4945 38.266C87.1124 38.5305 86.6422 38.4423 86.2013 38.4717V39.5298C86.554 39.5298 86.9067 39.5298 87.2594 39.5298L87.23 39.7943C86.8773 39.7943 86.5246 39.7943 86.2013 39.7943V40.8229C86.5834 40.8229 86.9949 40.8229 87.4063 40.8229V41.0874C86.9067 41.0874 86.4071 41.0874 85.878 41.0874V38.2072ZM82.263 38.1778C82.8508 38.2366 83.7326 38.0015 83.9677 38.7068C84.144 39.1771 83.7325 39.5004 83.4386 39.7649C83.7325 40.2057 83.9677 40.676 84.2028 41.1462C83.7032 41.058 83.615 40.529 83.3505 40.1763C83.2329 39.8237 82.8508 39.8531 82.5569 39.7649C82.5569 40.2057 82.5275 40.6466 82.5275 41.0874H82.2336C82.263 40.1176 82.263 39.1477 82.263 38.1778ZM79.9706 38.2072H80.2645V41.1168C80.1763 41.1168 80.0294 41.1168 79.9706 41.1168C79.9706 40.1176 79.9706 39.1771 79.9706 38.2072ZM75.7972 38.1778C76.4438 38.2072 77.1785 38.0602 77.7076 38.5305C78.3541 39.1477 78.2366 40.4408 77.4137 40.9111C76.9434 41.205 76.3262 41.1168 75.7972 41.1462C75.7972 40.1469 75.7678 39.1771 75.7972 38.1778ZM155.151 22.2483C157.678 21.5136 160.676 22.3659 162.204 24.5702C163.556 26.4217 163.674 28.9787 162.733 31.036C161.734 33.4166 159.001 34.7392 156.503 34.504C154.475 34.3571 152.476 33.2109 151.477 31.3887C150.713 30.0367 150.683 28.4203 150.86 26.9214C151.154 25.3931 152.006 23.9236 153.358 23.1301C153.916 22.748 154.504 22.4541 155.151 22.2483ZM121.793 22.4541C122.91 22.1308 124.056 21.8369 125.202 22.1014C126.701 22.3659 128.17 23.0125 129.14 24.2175C129.904 25.0698 130.257 26.216 130.463 27.3328C126.319 27.3328 122.175 27.3328 118.031 27.3328C118.178 25.158 119.735 23.1888 121.793 22.4541ZM91.4915 22.1014C92.9611 21.8369 94.4893 22.0426 95.8119 22.748C97.1345 23.3652 98.1337 24.5702 98.6628 25.9221C99.4269 27.9794 99.0742 30.3894 97.781 32.1528C96.0764 34.3277 92.9023 35.0625 90.3453 34.0632C88.4938 33.3578 86.9361 31.712 86.5834 29.7428C86.3483 28.1558 86.4071 26.4511 87.2594 25.0404C88.0823 23.424 89.7575 22.4835 91.4915 22.1014ZM51.5209 22.2483C53.0786 21.8369 54.7832 21.9544 56.2234 22.6892C57.8986 23.4533 59.1036 25.0698 59.4857 26.8332C59.7796 28.3027 59.6032 29.8604 58.9273 31.2123C58.3101 32.5643 57.0757 33.5342 55.7531 34.0632C52.8141 35.2388 48.9934 34.0338 47.612 31.0948C46.701 29.0375 46.8185 26.4805 48.0823 24.629C48.8464 23.3946 50.169 22.6598 51.5209 22.2483ZM188.126 20.8082C188.508 20.8082 188.891 20.8082 189.273 20.7788C189.919 22.1602 190.389 23.6003 190.918 25.011C191.976 27.8325 193.005 30.6539 194.063 33.4754C194.769 32.0353 195.18 30.507 195.768 29.0375C196.767 26.3042 197.766 23.5709 198.795 20.8082C199.177 20.8082 199.589 20.8082 200 20.8082C197.502 27.568 194.974 34.3277 192.447 41.0874C192.065 41.0874 191.683 41.0874 191.301 41.0874C191.947 39.1477 192.711 37.2373 193.387 35.2976C193.505 35.0331 193.446 34.7686 193.358 34.504C191.594 29.9486 189.831 25.3637 188.126 20.8082ZM183.159 35.6503C183.159 30.7127 183.159 25.7458 183.159 20.8082C183.512 20.8082 183.865 20.8082 184.247 20.8082C184.247 25.7752 184.247 30.7421 184.247 35.6796C183.865 35.6796 183.512 35.6503 183.159 35.6503ZM151.624 22.9831C153.916 20.6613 157.708 20.2792 160.617 21.6605C161.763 22.1896 162.674 23.1007 163.38 24.1293C163.38 23.0125 163.38 21.8957 163.38 20.8082C163.733 20.8082 164.085 20.8082 164.409 20.8082C164.438 25.7458 164.409 30.7127 164.409 35.6796H163.35C163.35 34.5922 163.35 33.5342 163.35 32.4761C162.234 34.122 160.411 35.2094 158.501 35.5915C156.267 35.8854 153.799 35.5033 152.065 33.975C148.92 31.3005 148.714 25.8927 151.624 22.9831ZM121.411 21.3666C122.733 20.9552 124.115 20.7201 125.496 20.9552C127.406 21.2785 129.258 22.2777 130.345 23.8942C131.256 25.2168 131.668 26.8332 131.609 28.4497C127.054 28.4497 122.469 28.4497 117.913 28.4497C117.913 30.2131 118.648 32.0353 120.088 33.0933C122.234 34.8861 125.525 35.0037 127.847 33.4754C129.17 32.5643 130.14 31.1242 130.375 29.5077C130.757 29.5077 131.168 29.5077 131.55 29.5077C131.315 31.4181 130.287 33.2697 128.67 34.3277C127.024 35.5621 124.849 35.8266 122.821 35.5621C120.647 35.2682 118.677 33.9162 117.59 31.9765C116.591 29.978 116.444 27.5974 117.208 25.5107C117.825 23.5415 119.53 22.0426 121.411 21.3666ZM108.567 20.8964C110.83 20.8082 113.093 20.8082 115.356 20.867C115.356 21.2491 115.356 21.6312 115.356 22.0132C113.505 22.0132 111.683 22.0132 109.86 22.0132C108.215 22.0132 106.451 22.1896 105.099 23.277C102.337 25.4225 101.984 29.8898 104.276 32.5055C105.246 33.6811 106.745 34.4159 108.273 34.504C110.625 34.651 113.005 34.5334 115.356 34.5922V35.6796C112.976 35.6796 110.595 35.6796 108.244 35.6796C106.098 35.6209 104.1 34.4453 102.866 32.7112C102.013 31.4475 101.69 29.9192 101.543 28.3909C101.602 26.2748 102.337 24.0999 103.953 22.6892C105.217 21.543 106.892 20.9258 108.567 20.8964ZM86.2013 24.5114C87.23 22.6304 89.1991 21.3079 91.2858 20.9846C93.3137 20.6319 95.518 20.9846 97.2226 22.219C97.9574 22.7186 98.5452 23.424 99.0742 24.1293C99.0742 23.0125 99.0742 21.9251 99.0742 20.8082C99.4269 20.8082 99.7796 20.8082 100.103 20.8082C100.132 25.7458 100.103 30.7127 100.132 35.6796H99.0742C99.0742 34.5922 99.0742 33.5342 99.0742 32.4761C97.9574 34.1514 96.0764 35.2682 94.0779 35.6209C92.0794 35.856 89.9339 35.5621 88.288 34.3571C86.701 33.299 85.7017 31.5062 85.3784 29.6547C85.0257 27.8619 85.4078 26.0691 86.2013 24.5114ZM62.072 20.8082H63.1301C63.1301 21.4842 63.1301 22.1602 63.1301 22.8361C64.1587 21.6312 65.687 20.7788 67.3035 20.8376C67.3035 21.1903 67.3035 21.543 67.3035 21.9251C66.0985 21.8957 64.8641 22.3659 64.0999 23.3358C63.3358 24.1587 63.1888 25.3343 63.1888 26.3924C63.1594 29.4783 63.1888 32.5643 63.1888 35.6796C62.8068 35.6796 62.4541 35.6796 62.1014 35.6796C62.072 30.7127 62.072 25.7458 62.072 20.8082ZM23.0125 21.543C23.8942 20.9258 25.011 20.8082 26.0985 20.8082C29.0963 20.8082 32.094 20.8082 35.0918 20.8082C35.0918 21.1903 35.0918 21.5724 35.0918 21.9544C31.9177 21.9544 28.7142 21.9544 25.54 21.9544C24.6289 21.9544 23.6591 22.2777 23.1007 23.0419C22.4247 23.9824 22.2483 25.3637 22.8655 26.363C23.3652 27.2447 24.335 27.8619 25.3637 27.8619C27.3916 27.8619 29.4195 27.8619 31.4475 27.8619C32.7994 27.8913 34.0632 28.7436 34.6804 29.9486C35.5621 31.712 34.9743 34.1514 33.2109 35.1506C32.6231 35.5033 31.9765 35.6796 31.3005 35.6503C27.9794 35.6796 24.6877 35.6503 21.3666 35.6503C21.3666 35.2976 21.3666 34.9449 21.3666 34.5628H30.7421C31.4769 34.5628 32.241 34.4453 32.8582 34.0338C34.1514 33.1227 34.3865 31.036 33.299 29.8898C32.7406 29.2726 31.9177 28.9493 31.0948 28.9493C29.1256 28.9493 27.1565 28.9493 25.1874 28.9493C23.9236 28.9493 22.6892 28.2733 22.0426 27.1859C20.8082 25.3931 21.3373 22.8068 23.0125 21.543ZM167.23 22.4835C168.347 21.2491 170.081 20.6613 171.697 20.8082C172.314 20.867 172.932 21.1021 173.519 21.2785C173.931 21.4548 174.342 21.1903 174.754 21.0727C177.164 20.191 180.162 21.3373 181.278 23.6885C181.631 24.4232 181.778 25.2168 181.749 26.0103C181.749 29.2138 181.749 32.4173 181.749 35.6209C181.396 35.6209 181.043 35.6209 180.691 35.6209C180.691 32.8876 180.691 30.1543 180.691 27.421C180.691 26.363 180.808 25.2461 180.309 24.2763C179.721 22.9537 178.398 22.072 176.988 21.8957C176.135 21.7193 175.283 21.9838 174.46 22.2483C174.431 26.7156 174.46 31.183 174.46 35.6503C174.078 35.6503 173.725 35.6503 173.373 35.6503C173.373 31.2123 173.373 26.8038 173.373 22.3659C171.991 21.7193 170.316 21.6899 168.964 22.4247C167.73 23.1888 166.907 24.5702 166.936 26.0103C166.936 29.2138 166.936 32.4173 166.936 35.6209C166.554 35.6209 166.201 35.6209 165.849 35.6209C165.849 32.4761 165.849 29.3314 165.849 26.1866C165.819 24.8641 166.289 23.4827 167.23 22.4835ZM59.6914 20.8082C60.0441 20.8082 60.3674 20.8082 60.6907 20.8082C60.8082 25.7458 60.7201 30.7127 60.7494 35.6503H59.6914C59.6914 34.5628 59.6914 33.5048 59.6914 32.4467C58.5452 34.122 56.6642 35.2682 54.6657 35.5915C52.6672 35.8266 50.5217 35.5033 48.8758 34.2983C47.2594 33.2109 46.2601 31.3299 45.9662 29.4195C45.6429 27.8031 46.025 26.1278 46.701 24.6583C47.5827 22.9243 49.2873 21.6312 51.1683 21.1315C53.4607 20.5437 56.0764 20.867 57.9868 22.3071C58.6627 22.8068 59.1918 23.4533 59.6914 24.0999C59.6914 23.0125 59.662 21.8957 59.6914 20.8082ZM185.628 35.6503C185.628 28.8905 185.628 22.1308 185.628 15.4004H186.716C186.716 22.1602 186.716 28.9199 186.716 35.6503C186.363 35.6503 186.01 35.6503 185.628 35.6503ZM183.159 15.4004H184.217C184.217 16.2234 184.217 17.0463 184.217 17.8692H183.159C183.159 17.0169 183.159 16.2234 183.159 15.4004ZM142.572 17.3108C144.1 16.0176 146.157 15.371 148.156 15.4298C148.156 15.7825 148.156 16.1646 148.156 16.5173C146.774 16.576 145.364 16.7524 144.188 17.4871C142.954 18.2219 142.101 19.4563 141.631 20.7788C143.63 20.8082 145.628 20.7788 147.656 20.7788C147.656 21.1315 147.656 21.5136 147.656 21.8663C145.54 21.9544 143.395 21.8663 141.278 21.8957C141.102 23.6003 141.161 25.3343 141.161 27.0683C141.161 29.9192 141.161 32.77 141.161 35.6209H140.073C140.073 31.5356 140.073 27.421 140.073 23.3064C140.044 21.1021 140.867 18.8097 142.572 17.3108ZM78.3835 17.252C79.9118 16.0176 81.9104 15.371 83.8795 15.4298C83.8795 15.7825 83.8795 16.1646 83.8795 16.5173C82.4982 16.576 81.0874 16.7524 79.9118 17.4871C78.6774 18.2219 77.8251 19.4563 77.3549 20.7788C79.3534 20.7788 81.3813 20.7788 83.3799 20.7788C83.3799 21.1609 83.3799 21.5136 83.3799 21.8957C81.2638 21.9838 79.1477 21.8957 77.0022 21.9251C76.9434 22.6892 76.8552 23.4533 76.8552 24.2175V35.6209H75.7678C75.7678 31.5356 75.7678 27.421 75.7678 23.3064C75.7678 21.0727 76.5907 18.7215 78.3835 17.252ZM21.5724 0C21.6312 0 21.7193 0.0293902 21.8075 0.0587803C23.4533 5.17267 25.158 10.2866 26.892 15.371C31.9471 15.371 36.9728 15.3711 42.0279 15.4004C40.5584 15.6062 39.0301 15.5768 37.5606 15.7531C37.5606 17.4284 37.5606 19.1036 37.5606 20.7494C39.7061 20.7494 41.8516 20.7494 43.9971 20.7494C43.9971 21.1021 43.9971 21.4842 43.9971 21.8369C41.8516 21.8369 39.7061 21.8369 37.5606 21.8369C37.5312 23.6885 37.5606 25.5694 37.5606 27.421C37.5312 28.7142 37.8251 30.0073 38.4129 31.183C38.8832 31.9765 39.5591 32.6525 40.2645 33.2697C41.4989 34.122 42.9684 34.5334 44.4379 34.5628C44.4379 34.9449 44.4379 35.2976 44.4379 35.6503C42.1455 35.709 39.8824 34.7392 38.3541 33.0345C37.0316 31.5062 36.4438 29.4489 36.4732 27.4504V15.8707C32.917 15.9589 29.4195 16.5467 25.8927 16.4879C24.6289 12.2263 23.0419 8.0529 21.6605 3.85011C20.2498 8.08229 18.8097 12.2851 17.4284 16.5173C12.9611 16.5173 8.52314 16.4879 4.05584 16.5467C4.43791 16.9875 4.90816 17.3108 5.3784 17.6341C8.52314 19.9559 11.6973 22.2777 14.842 24.5702C14.5481 25.8633 14.0779 27.0683 13.6958 28.3321C12.8141 31.2417 11.7855 34.0926 10.9331 37.0022C14.4893 34.504 18.0749 32.0353 21.6312 29.5959C17.781 32.77 13.8722 35.8854 10.022 39.0301C9.52241 39.4122 9.08156 39.8824 8.49375 40.1469C10.1396 35.1506 11.7561 30.0955 13.4019 25.0992C8.90522 21.8663 4.40852 18.6921 0 15.4298C5.46657 15.3417 10.9625 15.4004 16.4291 15.4004C18.1337 10.2572 19.8971 5.14328 21.5724 0Z" fill="white"/>
</svg>
