<?xml version="1.0" encoding="utf-8"?><svg xmlns="http://www.w3.org/2000/svg" xmlns:xlink="http://www.w3.org/1999/xlink"><symbol viewBox="0 0 77 15" id="kontora" xmlns="http://www.w3.org/2000/svg"><path d="M12.849 0l-5.5 6.817 6.373 7.906H9.231L3.515 7.567v7.156H0V0h3.515v6.427L8.655 0h4.194zm5.715 6.93c-1.35.123-2.042.969-2.076 2.536.034 1.622.73 2.474 2.086 2.557 1.343-.083 2.032-.938 2.066-2.567-.034-1.56-.726-2.403-2.076-2.526zm-.01 8.07c-1.515 0-2.817-.537-3.906-1.612C13.572 12.3 13.034 11 13.034 9.487c0-1.527.538-2.827 1.614-3.902 1.09-1.088 2.391-1.632 3.906-1.632 1.528 0 2.833.544 3.916 1.632 1.076 1.075 1.614 2.375 1.614 3.902 0 1.512-.538 2.813-1.614 3.901C21.387 14.463 20.082 15 18.554 15zm17.71-.277H32.8V9.405c0-1.595-.603-2.393-1.809-2.393s-1.809.794-1.809 2.382l.01 5.329h-3.35V4.138h3.36V5.4c.693-.828 1.474-1.242 2.344-1.242 3.146 0 4.718 1.848 4.718 5.544v5.02zm7.031.082c-.247.02-.48.03-.699.03-2.693 0-4.04-1.512-4.04-4.537v-9.25h3.33v3.038h2.694v3.05h-2.693v2.782c0 1.3.462 1.95 1.388 1.95h1.305v2.711c-.637.13-1.066.205-1.285.226zm7.668-7.875c-1.35.123-2.042.969-2.076 2.536.034 1.622.73 2.474 2.087 2.557 1.343-.083 2.031-.938 2.066-2.567-.035-1.56-.727-2.403-2.077-2.526zm-.01 8.07c-1.515 0-2.817-.537-3.906-1.612C45.971 12.3 45.433 11 45.433 9.487c0-1.527.538-2.827 1.614-3.902 1.09-1.088 2.392-1.632 3.906-1.632 1.528 0 2.833.544 3.916 1.632 1.076 1.075 1.614 2.375 1.614 3.902 0 1.512-.538 2.813-1.614 3.901C53.786 14.463 52.481 15 50.953 15zm10.628-8.778c.535-1.349 1.412-2.023 2.632-2.023.411 0 .863.079 1.357.236l-.01 2.69h-.278c-2.433 0-3.666 1.133-3.7 3.399v4.199H58.24V4.22h3.34v2.002zm10.105 5.595c1.322-.075 2.004-.876 2.045-2.402-.04-1.479-.726-2.273-2.055-2.382-1.33.11-2.012.903-2.046 2.382.034 1.533.72 2.334 2.056 2.402zM77 4.137v10.586h-3.351v-1.314c-.781.828-1.549 1.242-2.302 1.242-1.44 0-2.673-.51-3.7-1.53-1.022-1.027-1.532-2.259-1.532-3.696 0-1.444.51-2.676 1.531-3.696 1.028-1.027 2.261-1.54 3.7-1.54.754 0 1.522.414 2.303 1.242V4.138H77z"/></symbol><symbol viewBox="0 0 155 20" id="made-in_en" xmlns="http://www.w3.org/2000/svg"><path d="M.656.935c.2.21.401.315.602.526L2.46 2.722c2.908 3.155 5.816 6.204 8.724 9.359 1.605 1.787 3.31 3.47 4.914 5.257.3.316.602.631.902 1.052-1.103 1.367-3.008.841-3.71-1.052-1.905.316-3.81-.946-4.111-3.365h-.803c-.1 1.052-.501 1.998-1.303 2.63-.702.525-1.605.84-2.708.63-.2.631-.501 1.262-1.103 1.472-.401.21-.902.316-1.303.21-.903-.105-1.705-.946-1.906-1.997-.2-1.052.401-1.998 1.705-2.63-.3-2.207.702-3.574 3.109-4.31v-.736C3.865 9.032 2.962 8.61 2.36 7.77c-.602-.842-.803-1.788-.602-2.84C-.046 3.88-.547 2.091.656.935z"/><path d="M17.006 18.38c-.2-.21-.401-.315-.602-.526l-1.203-1.261c-2.908-3.155-5.816-6.204-8.725-9.359-1.604-1.787-3.309-3.47-4.913-5.257C1.262 1.66.96 1.346.66.925 1.763-.442 3.67.084 4.37 1.977c1.906-.316 3.811.946 4.112 3.364h.802c.1-1.051.502-1.997 1.304-2.628.702-.526 1.604-.842 2.707-.631.201-.631.502-1.262 1.103-1.472.402-.21.903-.316 1.304-.21.903.104 1.705.946 1.905 1.997.2 1.052-.4 1.998-1.704 2.629.3 2.208-.702 3.575-3.109 4.311v.736c1.003.21 1.905.631 2.507 1.472.602.842.802 1.788.602 2.84 1.805 1.05 2.306 2.838 1.103 3.995zM33.912 4.26v8.676H32.49V7.332c0-.224.012-.466.036-.726l-2.622 4.926c-.124.236-.314.354-.57.354h-.228c-.256 0-.446-.118-.57-.354l-2.652-4.944c.012.132.022.262.03.39s.012.246.012.354v5.604h-1.422V4.26h1.218c.072 0 .134.002.186.006a.467.467 0 01.138.03.278.278 0 01.114.078c.036.036.07.084.102.144l2.598 4.818a10.195 10.195 0 01.36.816 8.565 8.565 0 01.366-.828l2.562-4.806a.606.606 0 01.102-.144.342.342 0 01.114-.078.541.541 0 01.144-.03c.052-.004.114-.006.186-.006h1.218zm4.801 6.048c-.428.02-.788.058-1.08.114-.292.052-.526.12-.702.204a.923.923 0 00-.378.294.639.639 0 00-.114.366c0 .26.076.446.228.558.156.112.358.168.606.168.304 0 .566-.054.786-.162.224-.112.442-.28.654-.504v-1.038zm-3.396-2.67c.708-.648 1.56-.972 2.556-.972.36 0 .682.06.966.18.284.116.524.28.72.492.196.208.344.458.444.75.104.292.156.612.156.96v3.888h-.672a.708.708 0 01-.324-.06c-.076-.044-.136-.13-.18-.258l-.132-.444c-.156.14-.308.264-.456.372a2.804 2.804 0 01-.462.264c-.16.072-.332.126-.516.162-.18.04-.38.06-.6.06-.26 0-.5-.034-.72-.102a1.618 1.618 0 01-.57-.318 1.414 1.414 0 01-.372-.522 1.852 1.852 0 01-.132-.726 1.419 1.419 0 01.33-.906c.12-.14.274-.272.462-.396s.418-.232.69-.324c.276-.092.596-.166.96-.222.364-.06.78-.096 1.248-.108v-.36c0-.412-.088-.716-.264-.912-.176-.2-.43-.3-.762-.3-.24 0-.44.028-.6.084-.156.056-.294.12-.414.192l-.33.186a.631.631 0 01-.324.084.439.439 0 01-.264-.078.716.716 0 01-.174-.192l-.264-.474zm10.102.714a1.451 1.451 0 00-.552-.432 1.597 1.597 0 00-.636-.126c-.224 0-.426.042-.606.126a1.21 1.21 0 00-.462.384 1.8 1.8 0 00-.294.648c-.068.26-.102.568-.102.924 0 .36.028.666.084.918.06.248.144.452.252.612.108.156.24.27.396.342.156.068.33.102.522.102.308 0 .57-.064.786-.192.216-.128.42-.31.612-.546v-2.76zm1.482-4.332v8.916h-.906c-.196 0-.32-.09-.372-.27l-.126-.594a3.09 3.09 0 01-.858.69c-.32.176-.694.264-1.122.264-.336 0-.644-.07-.924-.21a2.098 2.098 0 01-.726-.606 3.033 3.033 0 01-.468-.99 5.072 5.072 0 01-.162-1.344c0-.456.062-.88.186-1.272s.302-.732.534-1.02c.232-.288.51-.512.834-.672a2.384 2.384 0 011.092-.246c.344 0 .638.054.882.162.244.108.462.254.654.438V4.02h1.482zm5.428 5.13c0-.192-.028-.372-.084-.54a1.25 1.25 0 00-.24-.45 1.095 1.095 0 00-.413-.3 1.358 1.358 0 00-.576-.114c-.428 0-.766.122-1.014.366-.245.244-.4.59-.468 1.038h2.795zm-2.825.894c.023.316.08.59.168.822.087.228.204.418.348.57a1.4 1.4 0 00.51.336c.2.072.42.108.66.108.24 0 .446-.028.618-.084a2.76 2.76 0 00.456-.186c.132-.068.246-.13.341-.186a.59.59 0 01.289-.084c.124 0 .216.046.276.138l.426.54a2.536 2.536 0 01-.552.486 3.281 3.281 0 01-1.32.474 4.79 4.79 0 01-.666.048 3.33 3.33 0 01-1.194-.21 2.727 2.727 0 01-.96-.63 2.993 2.993 0 01-.642-1.032c-.156-.412-.234-.888-.234-1.428 0-.42.068-.814.204-1.182.136-.372.33-.694.582-.966.256-.276.566-.494.93-.654.368-.16.782-.24 1.242-.24.388 0 .746.062 1.074.186.328.124.61.306.846.546.236.236.42.528.552.876.136.344.204.738.204 1.182 0 .224-.024.376-.072.456-.048.076-.14.114-.276.114h-3.81zm9.724-3.264v6.156H57.74V6.78h1.488zm.204-1.794a.844.844 0 01-.078.36.963.963 0 01-.21.294.995.995 0 01-.3.204.963.963 0 01-.372.072.948.948 0 01-.366-.072 1.018 1.018 0 01-.498-.498.963.963 0 010-.732.995.995 0 01.204-.3.929.929 0 01.294-.198.899.899 0 01.738 0 .912.912 0 01.3.198.943.943 0 01.288.672zm2.692 2.55c.124-.124.255-.238.39-.342a2.398 2.398 0 01.937-.444 2.37 2.37 0 01.576-.066c.336 0 .634.058.894.174.26.112.475.272.648.48.176.204.308.45.395.738.093.284.139.598.139.942v3.918H64.62V9.018c0-.376-.087-.666-.258-.87-.172-.208-.434-.312-.786-.312-.256 0-.496.058-.72.174a2.58 2.58 0 00-.637.474v4.452H60.74V6.78h.906c.192 0 .318.09.377.27l.102.486zm10.16 5.4h-1.62V4.26h1.62v8.676zm7.13-6.156l-2.443 6.156h-1.343L73.185 6.78h1.224a.46.46 0 01.277.078.364.364 0 01.15.198l1.187 3.288a8.846 8.846 0 01.295 1.116 13.8 13.8 0 01.132-.552c.047-.184.106-.372.174-.564l1.212-3.288a.406.406 0 01.15-.198.429.429 0 01.258-.078h1.17zm3.889 3.528c-.428.02-.788.058-1.08.114-.292.052-.526.12-.702.204a.924.924 0 00-.378.294.639.639 0 00-.114.366c0 .26.076.446.228.558.156.112.358.168.606.168.304 0 .566-.054.786-.162.224-.112.442-.28.654-.504v-1.038zm-3.396-2.67c.708-.648 1.56-.972 2.556-.972.36 0 .682.06.966.18.284.116.524.28.72.492.196.208.344.458.444.75.104.292.156.612.156.96v3.888h-.672a.708.708 0 01-.324-.06c-.076-.044-.136-.13-.18-.258l-.132-.444c-.156.14-.308.264-.456.372a2.805 2.805 0 01-.462.264c-.16.072-.332.126-.516.162-.18.04-.38.06-.6.06-.26 0-.5-.034-.72-.102a1.617 1.617 0 01-.57-.318 1.414 1.414 0 01-.372-.522 1.85 1.85 0 01-.132-.726 1.419 1.419 0 01.33-.906c.12-.14.274-.272.462-.396s.418-.232.69-.324c.276-.092.596-.166.96-.222.364-.06.78-.096 1.248-.108v-.36c0-.412-.088-.716-.264-.912-.176-.2-.43-.3-.762-.3-.24 0-.44.028-.6.084-.156.056-.294.12-.414.192l-.33.186a.63.63 0 01-.324.084.438.438 0 01-.264-.078.713.713 0 01-.174-.192l-.264-.474zm7.624-.102c.124-.124.254-.238.39-.342a2.395 2.395 0 01.936-.444c.176-.044.368-.066.576-.066.336 0 .634.058.894.174.26.112.476.272.648.48.176.204.308.45.396.738.092.284.138.598.138.942v3.918h-1.482V9.018c0-.376-.086-.666-.258-.87-.172-.208-.434-.312-.786-.312-.256 0-.496.058-.72.174a2.58 2.58 0 00-.636.474v4.452h-1.482V6.78h.906c.192 0 .318.09.378.27l.102.486zm8.111-.852c.456 0 .87.074 1.242.222a2.692 2.692 0 011.578 1.626c.144.392.216.83.216 1.314 0 .488-.072.928-.216 1.32-.144.392-.35.726-.618 1.002a2.653 2.653 0 01-.96.636 3.333 3.333 0 01-1.242.222c-.46 0-.878-.074-1.254-.222a2.712 2.712 0 01-.966-.636 2.922 2.922 0 01-.618-1.002 3.807 3.807 0 01-.216-1.32c0-.484.072-.922.216-1.314.148-.392.354-.724.618-.996.268-.272.59-.482.966-.63a3.397 3.397 0 011.254-.222zm0 5.202c.512 0 .89-.172 1.134-.516.248-.344.372-.848.372-1.512s-.124-1.17-.372-1.518c-.244-.348-.622-.522-1.134-.522-.52 0-.906.176-1.158.528-.248.348-.372.852-.372 1.512s.124 1.164.372 1.512c.252.344.638.516 1.158.516zm4.119-3.192h3.108V9.93H99.76V8.694zm6.378-3.15v2.568h3.252v1.29h-3.252v3.534h-1.62V4.26h5.472v1.284h-3.852zM112 7.848c.193-.368.42-.656.685-.864a1.45 1.45 0 01.936-.318c.284 0 .512.062.684.186l-.096 1.11a.294.294 0 01-.09.156.239.239 0 01-.15.042c-.06 0-.15-.01-.27-.03a2.01 2.01 0 00-.342-.03 1.11 1.11 0 00-.786.282c-.1.088-.19.196-.27.324a3.44 3.44 0 00-.216.438v3.792h-1.482V6.78h.87c.152 0 .258.028.318.084.06.052.1.148.12.288l.09.696zm6.25 2.46a7.76 7.76 0 00-1.08.114 2.8 2.8 0 00-.703.204.923.923 0 00-.378.294.639.639 0 00-.114.366c0 .26.076.446.228.558.156.112.358.168.606.168.304 0 .566-.054.786-.162.224-.112.442-.28.654-.504v-1.038zm-3.397-2.67c.708-.648 1.56-.972 2.556-.972.36 0 .682.06.966.18.284.116.524.28.72.492.196.208.344.458.444.75.104.292.156.612.156.96v3.888h-.672a.708.708 0 01-.324-.06c-.076-.044-.136-.13-.18-.258l-.132-.444c-.156.14-.308.264-.456.372a2.804 2.804 0 01-.462.264c-.16.072-.332.126-.516.162-.18.04-.38.06-.6.06-.26 0-.5-.034-.72-.102a1.618 1.618 0 01-.57-.318 1.414 1.414 0 01-.372-.522 1.852 1.852 0 01-.132-.726 1.419 1.419 0 01.33-.906c.12-.14.274-.272.462-.396s.418-.232.69-.324c.276-.092.596-.166.96-.222.364-.06.78-.096 1.248-.108v-.36c0-.412-.088-.716-.264-.912-.176-.2-.43-.3-.762-.3-.24 0-.44.028-.6.084-.156.056-.294.12-.414.192l-.33.186a.631.631 0 01-.324.084.439.439 0 01-.264-.078.716.716 0 01-.174-.192l-.264-.474zm7.624-.102c.124-.124.254-.238.39-.342a2.395 2.395 0 01.936-.444c.176-.044.368-.066.576-.066.336 0 .634.058.894.174.26.112.476.272.648.48.176.204.308.45.396.738.092.284.138.598.138.942v3.918h-1.482V9.018c0-.376-.086-.666-.258-.87-.172-.208-.434-.312-.786-.312-.256 0-.496.058-.72.174a2.58 2.58 0 00-.636.474v4.452h-1.482V6.78h.906c.192 0 .318.09.378.27l.102.486zm6.87-3.516v5.106h.276a.61.61 0 00.234-.036.507.507 0 00.18-.162l1.53-1.89a.723.723 0 01.21-.192.63.63 0 01.306-.066h1.356l-1.914 2.286a1.59 1.59 0 01-.444.414c.084.06.158.13.222.21.068.08.132.166.192.258l2.052 2.988h-1.338a.758.758 0 01-.3-.054.483.483 0 01-.21-.21l-1.572-2.334a.443.443 0 00-.174-.18.667.667 0 00-.27-.042h-.336v2.82h-1.482V4.02h1.482zm6.464 2.76v6.156h-1.488V6.78h1.488zm.204-1.794a.844.844 0 01-.078.36.963.963 0 01-.21.294.995.995 0 01-.3.204.963.963 0 01-.372.072.948.948 0 01-.366-.072 1.018 1.018 0 01-.498-.498.963.963 0 010-.732.995.995 0 01.204-.3.929.929 0 01.294-.198.899.899 0 01.738 0 .912.912 0 01.3.198.943.943 0 01.288.672zm6.857 1.794l-2.442 6.156h-1.344l-2.442-6.156h1.224a.46.46 0 01.276.078.363.363 0 01.15.198l1.188 3.288a8.846 8.846 0 01.294 1.116c.04-.184.084-.368.132-.552.048-.184.106-.372.174-.564l1.212-3.288a.405.405 0 01.15-.198.429.429 0 01.258-.078h1.17zm4.405 1.2a.429.429 0 01-.126.138.348.348 0 01-.168.036.548.548 0 01-.234-.06 6.955 6.955 0 00-.282-.132 2.343 2.343 0 00-.372-.138 1.735 1.735 0 00-.486-.06c-.292 0-.522.062-.69.186a.581.581 0 00-.246.486.48.48 0 00.126.336c.088.088.202.166.342.234.144.068.306.13.486.186.18.052.362.11.546.174.188.064.372.138.552.222.18.08.34.184.48.312.144.124.258.274.342.45.088.176.132.388.132.636 0 .296-.054.57-.162.822-.104.248-.26.464-.468.648-.208.18-.466.322-.774.426-.304.1-.656.15-1.056.15-.212 0-.42-.02-.624-.06a3.391 3.391 0 01-1.098-.396 2.56 2.56 0 01-.414-.3l.342-.564a.484.484 0 01.156-.156.437.437 0 01.228-.054c.092 0 .178.026.258.078.084.052.18.108.288.168.108.06.234.116.378.168.148.052.334.078.558.078.176 0 .326-.02.45-.06a.958.958 0 00.312-.168.587.587 0 00.18-.234.7.7 0 00.06-.282.491.491 0 00-.132-.354 1.081 1.081 0 00-.342-.24 2.954 2.954 0 00-.486-.18c-.18-.056-.366-.116-.558-.18a5.996 5.996 0 01-.558-.222 2.042 2.042 0 01-.486-.33 1.541 1.541 0 01-.342-.486 1.731 1.731 0 01-.126-.696c0-.252.05-.492.15-.72.1-.228.246-.426.438-.594a2.16 2.16 0 01.726-.408 2.997 2.997 0 011.008-.156c.424 0 .81.07 1.158.21.348.14.638.324.87.552l-.336.534zm2.999-3.96v5.106h.276a.61.61 0 00.234-.036.507.507 0 00.18-.162l1.53-1.89a.723.723 0 01.21-.192.63.63 0 01.306-.066h1.356l-1.914 2.286a1.59 1.59 0 01-.444.414c.084.06.158.13.222.21.068.08.132.166.192.258l2.052 2.988h-1.338a.758.758 0 01-.3-.054.483.483 0 01-.21-.21l-1.572-2.334a.443.443 0 00-.174-.18.667.667 0 00-.27-.042h-.336v2.82h-1.482V4.02h1.482z"/></symbol><symbol viewBox="0 0 190 19" id="made-in_ru" xmlns="http://www.w3.org/2000/svg"><path d="M.656.777c.2.21.401.315.602.526L2.46 2.564c2.908 3.155 5.816 6.204 8.724 9.359 1.605 1.787 3.31 3.47 4.914 5.257.3.316.602.631.902 1.052-1.103 1.367-3.008.841-3.71-1.052-1.905.316-3.81-.946-4.111-3.364h-.803c-.1 1.051-.501 1.997-1.303 2.628-.702.526-1.605.842-2.708.631-.2.631-.501 1.262-1.103 1.472-.401.21-.902.316-1.303.21-.903-.104-1.705-.946-1.906-1.997-.2-1.052.401-1.998 1.705-2.629-.3-2.208.702-3.575 3.109-4.311v-.736c-1.003-.21-1.906-.631-2.507-1.472-.602-.842-.803-1.788-.602-2.84C-.046 3.723-.547 1.935.656.778z"/><path d="M17.006 18.222c-.2-.21-.401-.315-.602-.525l-1.203-1.262c-2.908-3.155-5.816-6.204-8.725-9.359C4.872 5.29 3.167 3.606 1.563 1.82 1.262 1.503.96 1.188.66.767 1.763-.6 3.67-.073 4.37 1.82c1.906-.316 3.811.946 4.112 3.365h.802c.1-1.052.502-1.998 1.304-2.63.702-.525 1.604-.84 2.707-.63.201-.63.502-1.262 1.103-1.472.402-.21.903-.316 1.304-.21.903.105 1.705.946 1.905 1.997.2 1.052-.4 1.998-1.704 2.63.3 2.207-.702 3.574-3.109 4.31v.736c1.003.21 1.905.631 2.507 1.473.602.84.802 1.787.602 2.839 1.805 1.051 2.306 2.839 1.103 3.995zM30.462 10.732c.088 0 .166.034.234.102l.636.69c-.352.436-.786.77-1.302 1.002-.512.232-1.128.348-1.848.348-.644 0-1.224-.11-1.74-.33a3.836 3.836 0 01-1.314-.918 4.056 4.056 0 01-.84-1.404A5.32 5.32 0 0124 8.44c0-.652.104-1.248.312-1.788.208-.544.5-1.012.876-1.404.38-.392.832-.696 1.356-.912a4.452 4.452 0 011.74-.33c.632 0 1.192.104 1.68.312.492.208.91.48 1.254.816l-.54.75a.472.472 0 01-.126.126.335.335 0 01-.204.054.415.415 0 01-.186-.048 4.846 4.846 0 01-.21-.126 5.302 5.302 0 00-.264-.168c-.1-.06-.216-.114-.348-.162a2.473 2.473 0 00-.462-.126 2.955 2.955 0 00-.6-.054c-.388 0-.744.07-1.068.21-.32.136-.596.336-.828.6a2.73 2.73 0 00-.54.96 3.995 3.995 0 00-.192 1.29c0 .488.068.922.204 1.302.14.38.328.7.564.96.236.26.514.46.834.6.32.136.664.204 1.032.204.22 0 .418-.012.594-.036.18-.024.344-.062.492-.114.152-.052.294-.118.426-.198.136-.084.27-.186.402-.306a.495.495 0 01.126-.084.284.284 0 01.138-.036zm4.337-4.206c.455 0 .87.074 1.241.222a2.692 2.692 0 011.578 1.626c.144.392.216.83.216 1.314 0 .488-.072.928-.216 1.32-.144.392-.35.726-.618 1.002a2.653 2.653 0 01-.96.636 3.333 3.333 0 01-1.242.222c-.46 0-.878-.074-1.254-.222a2.712 2.712 0 01-.966-.636 2.922 2.922 0 01-.618-1.002 3.807 3.807 0 01-.216-1.32c0-.484.072-.922.216-1.314.148-.392.354-.724.618-.996.268-.272.59-.482.966-.63a3.397 3.397 0 011.254-.222zm0 5.202c.511 0 .89-.172 1.133-.516.248-.344.372-.848.372-1.512s-.124-1.17-.372-1.518c-.244-.348-.622-.522-1.134-.522-.52 0-.906.176-1.158.528-.248.348-.372.852-.372 1.512s.124 1.164.372 1.512c.252.344.638.516 1.158.516zm3.689-4.44c.232-.224.52-.406.864-.546.344-.144.756-.216 1.236-.216.38 0 .718.046 1.014.138.296.088.544.21.744.366.204.152.358.328.462.528a1.262 1.262 0 01.108.984 1.406 1.406 0 01-.474.702c-.128.1-.286.186-.474.258.336.128.606.316.81.564.208.248.312.554.312.918 0 .3-.07.566-.21.798-.136.232-.318.43-.546.594-.228.16-.49.282-.786.366a3.26 3.26 0 01-.906.126c-.176 0-.366-.016-.57-.048a3.17 3.17 0 01-.606-.162 3.302 3.302 0 01-.6-.312 2.545 2.545 0 01-.534-.486l.426-.54a.3.3 0 01.27-.138c.092 0 .18.03.264.09l.288.192c.112.068.244.132.396.192.152.056.342.084.57.084.372 0 .654-.084.846-.252a.803.803 0 00.288-.63c0-.248-.1-.442-.3-.582-.196-.14-.516-.21-.96-.21h-.696V9.1h.696c.388 0 .686-.068.894-.204.208-.136.312-.316.312-.54 0-.204-.092-.372-.276-.504-.18-.132-.448-.198-.804-.198-.212 0-.392.022-.54.066a2.597 2.597 0 00-.384.144 2.61 2.61 0 00-.264.138.386.386 0 01-.378.03.527.527 0 01-.156-.174l-.336-.57zm9.843 4.434V7.756h-1.512c-.04.516-.09.982-.15 1.398-.06.412-.13.78-.21 1.104-.08.324-.168.606-.264.846-.092.24-.192.446-.3.618h2.436zm2.568-.042v2.718c0 .136-.04.244-.12.324a.395.395 0 01-.3.12h-.924v-2.064h-4.608v1.644c0 .104-.034.2-.102.288-.064.088-.166.132-.306.132h-.936v-3.12h.174c.14 0 .276-.018.408-.054a.915.915 0 00.378-.24c.124-.12.24-.292.348-.516.112-.228.212-.53.3-.906.088-.38.164-.846.228-1.398.068-.552.122-1.214.162-1.986h4.17v5.058h1.128zm4.185-1.53c-.428.02-.788.058-1.08.114-.292.052-.526.12-.702.204a.923.923 0 00-.378.294.639.639 0 00-.114.366c0 .26.076.446.228.558.156.112.358.168.606.168.304 0 .566-.054.786-.162.224-.112.442-.28.654-.504V10.15zm-3.396-2.67c.708-.648 1.56-.972 2.556-.972.36 0 .682.06.966.18.284.116.524.28.72.492.196.208.344.458.444.75.104.292.156.612.156.96v3.888h-.672a.708.708 0 01-.324-.06c-.076-.044-.136-.13-.18-.258l-.132-.444c-.156.14-.308.264-.456.372a2.804 2.804 0 01-.462.264c-.16.072-.332.126-.516.162-.18.04-.38.06-.6.06-.26 0-.5-.034-.72-.102a1.618 1.618 0 01-.57-.318 1.414 1.414 0 01-.372-.522 1.852 1.852 0 01-.132-.726 1.419 1.419 0 01.33-.906c.12-.14.274-.272.462-.396s.418-.232.69-.324c.276-.092.596-.166.96-.222.364-.06.78-.096 1.248-.108v-.36c0-.412-.088-.716-.264-.912-.176-.2-.43-.3-.762-.3-.24 0-.44.028-.6.084-.156.056-.294.12-.414.192l-.33.186a.631.631 0 01-.324.084.439.439 0 01-.264-.078.716.716 0 01-.174-.192l-.264-.474zm11.602-.858v6.156h-1.482v-2.724h-2.4v2.724h-1.482V6.622h1.482v2.334h2.4V6.622h1.482zm4.192-.096c.456 0 .87.074 1.242.222a2.692 2.692 0 011.578 1.626c.144.392.216.83.216 1.314 0 .488-.072.928-.216 1.32-.144.392-.35.726-.618 1.002a2.653 2.653 0 01-.96.636 3.333 3.333 0 01-1.242.222c-.46 0-.878-.074-1.254-.222a2.712 2.712 0 01-.966-.636 2.922 2.922 0 01-.618-1.002 3.807 3.807 0 01-.216-1.32c0-.484.072-.922.216-1.314.148-.392.354-.724.618-.996.268-.272.59-.482.966-.63a3.397 3.397 0 011.254-.222zm0 5.202c.512 0 .89-.172 1.134-.516.248-.344.372-.848.372-1.512s-.124-1.17-.372-1.518c-.244-.348-.622-.522-1.134-.522-.52 0-.906.176-1.158.528-.248.348-.372.852-.372 1.512s.124 1.164.372 1.512c.252.344.638.516 1.158.516zm9.599.036c.312 0 .558-.076.738-.228.184-.152.276-.36.276-.624a.98.98 0 00-.048-.312.556.556 0 00-.156-.258.771.771 0 00-.312-.168 1.683 1.683 0 00-.492-.06h-1.11v1.65h1.104zm-1.104-4.176v1.614h.972c.144 0 .276-.02.396-.06a.854.854 0 00.516-.456.862.862 0 00.024-.624.57.57 0 00-.162-.24.772.772 0 00-.306-.168 1.416 1.416 0 00-.468-.066h-.972zm1.014-.966c.388 0 .722.038 1.002.114.284.076.518.18.702.312.184.132.32.29.408.474.088.18.132.376.132.588 0 .132-.018.27-.054.414a1.342 1.342 0 01-.528.768 1.671 1.671 0 01-.564.252c.204.044.39.106.558.186.168.076.312.174.432.294.12.116.212.254.276.414.068.156.102.332.102.528a1.589 1.589 0 01-.72 1.374 2.32 2.32 0 01-.756.33 3.625 3.625 0 01-.894.108h-2.52V6.622h2.424zm14.077-2.52v8.676h-1.62V7.342c0-.204.004-.418.012-.642.012-.224.036-.462.072-.714-.08.224-.168.432-.264.624a6.114 6.114 0 01-.27.498L85.68 12.28c-.036.06-.08.12-.132.18-.048.06-.102.114-.162.162-.06.044-.126.082-.198.114a.608.608 0 01-.222.042h-1.212V4.102h1.62v5.436c0 .204-.006.42-.018.648a6.77 6.77 0 01-.066.714c.08-.224.166-.432.258-.624.096-.192.19-.36.282-.504L89.142 4.6a1.023 1.023 0 01.294-.336.785.785 0 01.192-.114.555.555 0 01.228-.048h1.212zm4.118 7.662c.312 0 .558-.076.738-.228.184-.152.276-.36.276-.624a.98.98 0 00-.048-.312.556.556 0 00-.156-.258.771.771 0 00-.312-.168 1.683 1.683 0 00-.492-.06h-1.11v1.65h1.104zm-1.104-4.176v1.614h.972c.144 0 .276-.02.396-.06a.854.854 0 00.516-.456.862.862 0 00.024-.624.57.57 0 00-.162-.24.772.772 0 00-.306-.168 1.416 1.416 0 00-.468-.066h-.972zm1.014-.966c.388 0 .722.038 1.002.114.284.076.518.18.702.312.184.132.32.29.408.474.088.18.132.376.132.588 0 .132-.018.27-.054.414a1.342 1.342 0 01-.528.768 1.671 1.671 0 01-.564.252c.204.044.39.106.558.186.168.076.312.174.432.294.12.116.212.254.276.414.068.156.102.332.102.528a1.589 1.589 0 01-.72 1.374 2.32 2.32 0 01-.756.33 3.625 3.625 0 01-.894.108h-2.52V6.622h2.424zm6.863 3.528c-.428.02-.788.058-1.08.114-.292.052-.526.12-.702.204a.923.923 0 00-.378.294.639.639 0 00-.114.366c0 .26.076.446.228.558.156.112.358.168.606.168.304 0 .566-.054.786-.162.224-.112.442-.28.654-.504V10.15zm-3.396-2.67c.708-.648 1.56-.972 2.556-.972.36 0 .682.06.966.18.284.116.524.28.72.492.196.208.344.458.444.75.104.292.156.612.156.96v3.888h-.672a.708.708 0 01-.324-.06c-.076-.044-.136-.13-.18-.258l-.132-.444c-.156.14-.308.264-.456.372a2.804 2.804 0 01-.462.264c-.16.072-.332.126-.516.162-.18.04-.38.06-.6.06-.26 0-.5-.034-.72-.102a1.618 1.618 0 01-.57-.318 1.414 1.414 0 01-.372-.522 1.852 1.852 0 01-.132-.726 1.419 1.419 0 01.33-.906c.12-.14.274-.272.462-.396s.418-.232.69-.324c.276-.092.596-.166.96-.222.364-.06.78-.096 1.248-.108v-.36c0-.412-.088-.716-.264-.912-.176-.2-.43-.3-.762-.3-.24 0-.44.028-.6.084-.156.056-.294.12-.414.192l-.33.186a.631.631 0 01-.324.084.439.439 0 01-.264-.078.716.716 0 01-.174-.192l-.264-.474zm11.602-.858v6.156h-1.482v-2.724h-2.4v2.724h-1.482V6.622h1.482v2.334h2.4V6.622h1.482zm4.192-.096c.456 0 .87.074 1.242.222a2.692 2.692 0 011.578 1.626c.144.392.216.83.216 1.314 0 .488-.072.928-.216 1.32-.144.392-.35.726-.618 1.002a2.653 2.653 0 01-.96.636 3.333 3.333 0 01-1.242.222c-.46 0-.878-.074-1.254-.222a2.712 2.712 0 01-.966-.636 2.922 2.922 0 01-.618-1.002 3.807 3.807 0 01-.216-1.32c0-.484.072-.922.216-1.314.148-.392.354-.724.618-.996.268-.272.59-.482.966-.63a3.397 3.397 0 011.254-.222zm0 5.202c.512 0 .89-.172 1.134-.516.248-.344.372-.848.372-1.512s-.124-1.17-.372-1.518c-.244-.348-.622-.522-1.134-.522-.52 0-.906.176-1.158.528-.248.348-.372.852-.372 1.512s.124 1.164.372 1.512c.252.344.638.516 1.158.516zm4.119-3.192h3.108v1.236h-3.108V8.536zm9.384 1.962a2.1 2.1 0 001.506-.672c.184-.204.326-.44.426-.708.104-.272.156-.564.156-.876 0-.304-.052-.59-.156-.858-.1-.272-.242-.51-.426-.714a2.05 2.05 0 00-1.506-.678v4.506zm-1.53-4.506a2.113 2.113 0 00-.852.192 2.07 2.07 0 00-.654.486 2.174 2.174 0 00-.426.714c-.1.268-.15.554-.15.858 0 .312.05.604.15.876.1.268.242.504.426.708.184.2.402.36.654.48.256.12.54.184.852.192V5.992zm1.53-1.242c.54.016 1.036.118 1.488.306.452.188.84.44 1.164.756.328.316.584.682.768 1.098.184.416.276.86.276 1.332 0 .476-.092.924-.276 1.344-.184.416-.44.782-.768 1.098a3.658 3.658 0 01-1.164.756c-.452.188-.948.29-1.488.306v1.032h-1.53v-1.032a4.149 4.149 0 01-1.482-.306 3.878 3.878 0 01-1.17-.756 3.453 3.453 0 01-.768-1.098 3.312 3.312 0 01-.276-1.344c0-.472.092-.916.276-1.332.184-.416.44-.78.768-1.092a3.732 3.732 0 011.17-.756 4.24 4.24 0 011.482-.312V3.736h1.53V4.75zm6.185 6.432c.168.204.35.348.546.432.2.084.416.126.648.126.224 0 .426-.042.606-.126.18-.084.332-.212.456-.384.128-.172.226-.388.294-.648.068-.264.102-.574.102-.93 0-.36-.03-.664-.09-.912a1.73 1.73 0 00-.246-.612.978.978 0 00-.396-.342 1.206 1.206 0 00-.522-.108c-.308 0-.57.066-.786.198-.216.128-.42.31-.612.546v2.76zm-.078-3.72a3.21 3.21 0 01.858-.69c.32-.176.696-.264 1.128-.264a2 2 0 01.918.21c.28.14.52.344.72.612.204.264.36.592.468.984.112.388.168.834.168 1.338 0 .46-.062.886-.186 1.278a3.095 3.095 0 01-.534 1.02 2.447 2.447 0 01-.834.678c-.324.16-.688.24-1.092.24-.344 0-.638-.052-.882-.156a2.201 2.201 0 01-.654-.444v2.52h-1.482V6.622h.906c.192 0 .318.09.378.27l.12.57zm8.657 2.688c-.428.02-.788.058-1.08.114-.292.052-.526.12-.702.204a.923.923 0 00-.378.294.639.639 0 00-.114.366c0 .26.076.446.228.558.156.112.358.168.606.168.304 0 .566-.054.786-.162.224-.112.442-.28.654-.504V10.15zm-3.396-2.67c.708-.648 1.56-.972 2.556-.972.36 0 .682.06.966.18.284.116.524.28.72.492.196.208.344.458.444.75.104.292.156.612.156.96v3.888h-.672a.708.708 0 01-.324-.06c-.076-.044-.136-.13-.18-.258l-.132-.444c-.156.14-.308.264-.456.372a2.804 2.804 0 01-.462.264c-.16.072-.332.126-.516.162-.18.04-.38.06-.6.06-.26 0-.5-.034-.72-.102a1.618 1.618 0 01-.57-.318 1.414 1.414 0 01-.372-.522 1.852 1.852 0 01-.132-.726 1.419 1.419 0 01.33-.906c.12-.14.274-.272.462-.396s.418-.232.69-.324c.276-.092.596-.166.96-.222.364-.06.78-.096 1.248-.108v-.36c0-.412-.088-.716-.264-.912-.176-.2-.43-.3-.762-.3-.24 0-.44.028-.6.084-.156.056-.294.12-.414.192l-.33.186a.631.631 0 01-.324.084.439.439 0 01-.264-.078.716.716 0 01-.174-.192l-.264-.474zm11.6-.858v6.156h-1.481v-2.724h-2.4v2.724h-1.482V6.622h1.482v2.334h2.4V6.622h1.482zm5.147.39a.83.83 0 01.69-.39h1.164l-1.434 2.286c-.1.16-.202.29-.306.39a1.15 1.15 0 01-.378.228c.2.06.364.15.492.27.128.116.244.264.348.444l1.44 2.538h-1.026c-.26 0-.462-.044-.606-.132a1.107 1.107 0 01-.366-.378l-.906-1.704a.805.805 0 00-.312-.33.857.857 0 00-.438-.108h-.558v2.652h-1.482V6.622h1.482V9.16h.48c.168 0 .302-.03.402-.09a.772.772 0 00.264-.288l1.05-1.77zm5.339-.486c.456 0 .87.074 1.242.222a2.692 2.692 0 011.578 1.626c.144.392.216.83.216 1.314 0 .488-.072.928-.216 1.32-.144.392-.35.726-.618 1.002a2.653 2.653 0 01-.96.636 3.333 3.333 0 01-1.242.222c-.46 0-.878-.074-1.254-.222a2.712 2.712 0 01-.966-.636 2.922 2.922 0 01-.618-1.002 3.807 3.807 0 01-.216-1.32c0-.484.072-.922.216-1.314.148-.392.354-.724.618-.996.268-.272.59-.482.966-.63a3.397 3.397 0 011.254-.222zm0 5.202c.512 0 .89-.172 1.134-.516.248-.344.372-.848.372-1.512s-.124-1.17-.372-1.518c-.244-.348-.622-.522-1.134-.522-.52 0-.906.176-1.158.528-.248.348-.372.852-.372 1.512s.124 1.164.372 1.512c.252.344.638.516 1.158.516zm6.68.036c.313 0 .559-.076.739-.228.184-.152.276-.36.276-.624a.98.98 0 00-.048-.312.556.556 0 00-.156-.258.771.771 0 00-.312-.168 1.683 1.683 0 00-.492-.06h-1.11v1.65h1.104zm-1.103-4.176v1.614h.972c.144 0 .276-.02.396-.06a.854.854 0 00.516-.456.862.862 0 00.024-.624.57.57 0 00-.162-.24.772.772 0 00-.306-.168 1.416 1.416 0 00-.468-.066h-.972zm1.014-.966c.388 0 .722.038 1.002.114.284.076.518.18.702.312.184.132.32.29.408.474.088.18.132.376.132.588 0 .132-.018.27-.054.414a1.342 1.342 0 01-.528.768 1.671 1.671 0 01-.564.252c.204.044.39.106.558.186.168.076.312.174.432.294.12.116.212.254.276.414.068.156.102.332.102.528a1.589 1.589 0 01-.72 1.374 2.32 2.32 0 01-.756.33 3.625 3.625 0 01-.894.108h-2.52V6.622h2.424zm8.02 1.302a.685.685 0 01-.131.132c-.04.032-.1.048-.18.048a.42.42 0 01-.222-.066 3.947 3.947 0 00-.258-.156c-.1-.06-.22-.112-.36-.156a1.55 1.55 0 00-.51-.072c-.26 0-.488.048-.684.144-.196.092-.36.226-.492.402-.128.176-.224.39-.288.642-.064.248-.096.53-.096.846 0 .328.034.62.102.876.072.256.174.472.306.648.132.172.292.304.48.396.188.088.4.132.636.132s.426-.028.57-.084c.148-.06.272-.124.372-.192.1-.072.186-.136.258-.192.076-.06.16-.09.252-.09a.3.3 0 01.27.138l.426.54a2.76 2.76 0 01-.534.486 3.06 3.06 0 01-.6.312 3.09 3.09 0 01-.636.162 4.416 4.416 0 01-.648.048c-.38 0-.738-.07-1.074-.21a2.572 2.572 0 01-.882-.624 3.01 3.01 0 01-.6-.996 3.934 3.934 0 01-.216-1.35c0-.452.064-.87.192-1.254.132-.388.324-.722.576-1.002a2.61 2.61 0 01.936-.666c.372-.16.8-.24 1.284-.24.46 0 .862.074 1.206.222.348.148.66.36.936.636l-.39.54zm5.058-.912a.83.83 0 01.69-.39h1.164l-1.434 2.286c-.1.16-.202.29-.306.39a1.15 1.15 0 01-.378.228c.2.06.364.15.492.27.128.116.244.264.348.444l1.44 2.538h-1.026c-.26 0-.462-.044-.606-.132a1.107 1.107 0 01-.366-.378l-.906-1.704a.805.805 0 00-.312-.33.857.857 0 00-.438-.108h-.558v2.652h-1.482V6.622h1.482V9.16h.48c.168 0 .302-.03.402-.09a.772.772 0 00.264-.288l1.05-1.77zm6.58 1.98c0-.192-.027-.372-.083-.54a1.25 1.25 0 00-.24-.45 1.096 1.096 0 00-.414-.3 1.358 1.358 0 00-.576-.114c-.428 0-.766.122-1.014.366-.244.244-.4.59-.468 1.038h2.796zm-2.825.894c.024.316.08.59.168.822.088.228.204.418.348.57.144.148.314.26.51.336.2.072.42.108.66.108.24 0 .446-.028.618-.084a2.76 2.76 0 00.456-.186 7.55 7.55 0 00.342-.186.59.59 0 01.288-.084c.124 0 .216.046.276.138l.426.54a2.536 2.536 0 01-.552.486 3.281 3.281 0 01-1.32.474 4.79 4.79 0 01-.666.048 3.33 3.33 0 01-1.194-.21 2.726 2.726 0 01-.96-.63 2.993 2.993 0 01-.642-1.032c-.156-.412-.234-.888-.234-1.428 0-.42.068-.814.204-1.182.136-.372.33-.694.582-.966.256-.276.566-.494.93-.654.368-.16.782-.24 1.242-.24.388 0 .746.062 1.074.186.328.124.61.306.846.546.236.236.42.528.552.876.136.344.204.738.204 1.182 0 .224-.024.376-.072.456-.048.076-.14.114-.276.114h-3.81z"/></symbol><symbol viewBox="0 0 195 19" id="made-in_uk" xmlns="http://www.w3.org/2000/svg"><path d="M1.334 1.45c.2.2.4.3.6.5l1.2 1.2c2.9 3 5.8 5.9 8.7 8.9 1.6 1.7 3.3 3.3 4.9 5 .3.3.6.6.9 1-1.1 1.3-3 .8-3.7-1-1.9.3-3.8-.9-4.1-3.2h-.8c-.1 1-.5 1.9-1.3 2.5-.7.5-1.6.8-2.7.6-.2.6-.5 1.2-1.1 1.4-.4.2-.9.3-1.3.2-.9-.1-1.7-.9-1.9-1.9-.2-1 .4-1.9 1.7-2.5-.3-2.1.7-3.4 3.1-4.1v-.7c-1-.2-1.9-.6-2.5-1.4-.6-.8-.8-1.7-.6-2.7-1.8-1-2.3-2.7-1.1-3.8z"/><path d="M17.639 18.04c-.2-.2-.4-.3-.6-.5l-1.2-1.2c-2.9-3-5.8-5.9-8.7-8.9-1.6-1.7-3.3-3.3-4.9-5-.3-.3-.6-.6-.9-1 1.1-1.3 3-.8 3.7 1 1.9-.3 3.8.9 4.1 3.2h.8c.1-1 .5-1.9 1.3-2.5.7-.5 1.6-.8 2.7-.6.2-.6.5-1.2 1.1-1.4.4-.2.9-.3 1.3-.2.9.1 1.7.9 1.9 1.9.2 1-.4 1.9-1.7 2.5.3 2.1-.7 3.4-3.1 4.1v.7c1 .2 1.9.6 2.5 1.4.6.8.8 1.7.6 2.7 1.8 1 2.3 2.7 1.1 3.8zM24.62 5.59a3.66 3.66 0 011.194-.671c.464-.16.978-.24 1.542-.24.468 0 .89.056 1.266.168.38.112.702.27.966.474.264.2.466.44.606.72.144.276.216.58.216.912 0 .408-.094.778-.282 1.11a2.054 2.054 0 01-.84.798c.2.096.382.21.546.342.168.128.31.272.426.432.12.156.212.326.276.51.068.184.102.38.102.588 0 .392-.074.758-.222 1.098-.144.34-.356.636-.636.888a3.046 3.046 0 01-1.02.6 4.116 4.116 0 01-1.386.216c-.303 0-.601-.028-.893-.084a4.68 4.68 0 01-1.573-.588 3.53 3.53 0 01-.618-.468l.475-.774a.57.57 0 01.156-.138.389.389 0 01.21-.06c.104 0 .218.042.342.126.124.08.274.17.45.27s.384.192.624.276c.243.08.535.12.875.12.54 0 .958-.116 1.254-.348.297-.232.445-.588.445-1.068 0-.196-.04-.372-.12-.528a1.117 1.117 0 00-.343-.396 1.6 1.6 0 00-.54-.246 2.5 2.5 0 00-.695-.09h-1.224l-.007-1.296h1.116c.5 0 .89-.098 1.17-.294.284-.2.426-.488.426-.864a.931.931 0 00-.402-.792c-.264-.2-.648-.3-1.152-.3-.292 0-.544.032-.756.096-.208.064-.39.134-.546.21a4.83 4.83 0 00-.39.204.551.551 0 01-.282.096.342.342 0 01-.204-.06.589.589 0 01-.156-.18l-.396-.768zm8.602 6.265c.168.204.35.348.546.432.2.084.416.126.648.126.224 0 .426-.042.606-.126.18-.084.332-.212.456-.384.128-.172.226-.388.294-.648.068-.264.102-.574.102-.93 0-.36-.03-.664-.09-.912a1.73 1.73 0 00-.246-.612.978.978 0 00-.396-.342 1.206 1.206 0 00-.522-.108c-.308 0-.57.066-.786.198-.216.128-.42.31-.612.546v2.76zm-.078-3.72a3.21 3.21 0 01.858-.69c.32-.176.696-.264 1.128-.264a2 2 0 01.918.21c.28.14.52.344.72.612.204.264.36.592.468.984.112.388.168.834.168 1.338 0 .46-.062.886-.186 1.278a3.095 3.095 0 01-.534 1.02 2.447 2.447 0 01-.834.678c-.324.16-.688.24-1.092.24-.344 0-.638-.052-.882-.156a2.201 2.201 0 01-.654-.444v2.52H31.74V7.295h.906c.192 0 .318.09.378.27l.12.57zm8.129-.936c.456 0 .87.074 1.242.222a2.692 2.692 0 011.578 1.626c.144.392.216.83.216 1.314 0 .488-.072.928-.216 1.32-.144.392-.35.726-.618 1.002a2.653 2.653 0 01-.96.636 3.333 3.333 0 01-1.242.222c-.46 0-.878-.074-1.254-.222a2.712 2.712 0 01-.966-.636 2.922 2.922 0 01-.618-1.002 3.807 3.807 0 01-.216-1.32c0-.484.072-.922.216-1.314.148-.392.354-.724.618-.996.268-.272.59-.482.966-.63a3.397 3.397 0 011.254-.222zm0 5.202c.512 0 .89-.172 1.134-.516.248-.344.372-.848.372-1.512s-.124-1.17-.372-1.518c-.244-.348-.622-.522-1.134-.522-.52 0-.906.176-1.158.528-.248.348-.372.852-.372 1.512s.124 1.164.372 1.512c.252.344.638.516 1.158.516zm7.058.06c.512 0 .894-.164 1.146-.492.252-.328.378-.808.378-1.44 0-.628-.124-1.106-.372-1.434-.244-.328-.618-.492-1.122-.492-.504 0-.888.156-1.152.468-.264.308-.396.77-.396 1.386 0 .652.124 1.15.372 1.494.252.34.634.51 1.146.51zm.432-6.282a2.704 2.704 0 00-.966.222c-.264.12-.484.284-.66.492a2.14 2.14 0 00-.396.738c-.088.284-.14.6-.156.948.1-.156.222-.298.366-.426.148-.132.312-.244.492-.336.184-.096.382-.17.594-.222a2.94 2.94 0 01.69-.078c.408 0 .776.072 1.104.216.328.144.606.348.834.612.232.264.408.582.528.954.124.368.186.776.186 1.224 0 .464-.074.882-.222 1.254-.144.372-.35.69-.618.954a2.68 2.68 0 01-.96.6c-.376.14-.792.21-1.248.21-.444 0-.854-.072-1.23-.216a2.363 2.363 0 01-.966-.702c-.272-.324-.484-.744-.636-1.26-.152-.52-.228-1.154-.228-1.902 0-.628.058-1.212.174-1.752a4.16 4.16 0 01.57-1.416c.264-.408.61-.736 1.038-.984.428-.248.956-.396 1.584-.444l2.19-.168.078.768a.71.71 0 01-.072.42c-.064.112-.178.172-.342.18l-1.728.114zM58.1 13.45h-1.482V8.429h-1.512a17.108 17.108 0 01-.222 1.956c-.1.544-.22 1.006-.36 1.386a3.56 3.56 0 01-.462.918 2.196 2.196 0 01-.54.534c-.192.128-.39.212-.594.252-.204.044-.41.066-.618.066-.22 0-.382-.02-.486-.06-.1-.036-.15-.088-.15-.156V12.4h.354c.132 0 .264-.02.396-.06a.934.934 0 00.384-.246c.124-.124.242-.3.354-.528.112-.232.214-.536.306-.912.096-.38.18-.844.252-1.392.072-.548.128-1.204.168-1.968H58.1v6.156zm5.426-3.786c0-.192-.028-.372-.084-.54a1.25 1.25 0 00-.24-.45 1.096 1.096 0 00-.414-.3 1.358 1.358 0 00-.576-.114c-.428 0-.766.122-1.014.366-.244.244-.4.59-.468 1.038h2.796zm-2.826.894c.024.316.08.59.168.822.088.228.204.418.348.57.144.148.314.26.51.336.2.072.42.108.66.108.24 0 .446-.028.618-.084a2.76 2.76 0 00.456-.186 7.55 7.55 0 00.342-.186.59.59 0 01.288-.084c.124 0 .216.046.276.138l.426.54a2.536 2.536 0 01-.552.486 3.281 3.281 0 01-1.32.474 4.79 4.79 0 01-.666.048 3.33 3.33 0 01-1.194-.21 2.726 2.726 0 01-.96-.63 2.993 2.993 0 01-.642-1.032c-.156-.412-.234-.888-.234-1.428 0-.42.068-.814.204-1.182.136-.372.33-.694.582-.966.256-.276.566-.494.93-.654.368-.16.782-.24 1.242-.24.388 0 .746.062 1.074.186.328.124.61.306.846.546.236.236.42.528.552.876.136.344.204.738.204 1.182 0 .224-.024.376-.072.456-.048.076-.14.114-.276.114H60.7zm10.634-3.264v6.156h-1.482v-2.724h-2.4v2.724H65.97V7.295h1.482v2.334h2.4V7.295h1.482zm4.192-.096c.456 0 .87.074 1.242.222a2.692 2.692 0 011.578 1.626c.144.392.216.83.216 1.314 0 .488-.072.928-.216 1.32-.144.392-.35.726-.618 1.002a2.653 2.653 0 01-.96.636 3.333 3.333 0 01-1.242.222 3.4 3.4 0 01-1.254-.222 2.712 2.712 0 01-.966-.636 2.922 2.922 0 01-.617-1.002 3.807 3.807 0 01-.216-1.32c0-.484.072-.922.215-1.314a2.86 2.86 0 01.619-.996c.267-.272.59-.482.965-.63a3.397 3.397 0 011.254-.222zm0 5.202c.513 0 .89-.172 1.135-.516.247-.344.371-.848.371-1.512s-.123-1.17-.371-1.518c-.245-.348-.623-.522-1.135-.522-.52 0-.905.176-1.157.528-.248.348-.373.852-.373 1.512s.125 1.164.373 1.512c.252.344.637.516 1.157.516zm9.6.036c.311 0 .557-.076.737-.228.184-.152.276-.36.276-.624a.98.98 0 00-.048-.312.556.556 0 00-.156-.258.771.771 0 00-.312-.168 1.683 1.683 0 00-.492-.06h-1.11v1.65h1.104zM84.02 8.26v1.614h.972c.144 0 .276-.02.396-.06a.854.854 0 00.516-.456.862.862 0 00.024-.624.57.57 0 00-.162-.24.772.772 0 00-.306-.168 1.416 1.416 0 00-.468-.066h-.972zm1.014-.966c.388 0 .722.038 1.002.114.284.076.518.18.702.312.184.132.32.29.408.474.088.18.132.376.132.588 0 .132-.018.27-.054.414a1.342 1.342 0 01-.528.768 1.671 1.671 0 01-.564.252c.204.044.39.106.558.186.168.076.312.174.432.294.12.116.212.254.276.414.068.156.102.332.102.528a1.589 1.589 0 01-.72 1.374 2.32 2.32 0 01-.756.33 3.625 3.625 0 01-.894.108h-2.52V7.295h2.424zm8.383 6.156h-1.62V4.775h1.62v8.676zm4.129-1.014c.312 0 .558-.076.738-.228.184-.152.276-.36.276-.624a.98.98 0 00-.048-.312.556.556 0 00-.156-.258.771.771 0 00-.312-.168 1.683 1.683 0 00-.492-.06h-1.11v1.65h1.104zM96.443 8.26v1.614h.972c.144 0 .276-.02.396-.06a.854.854 0 00.516-.456.862.862 0 00.024-.624.57.57 0 00-.162-.24.772.772 0 00-.306-.168 1.416 1.416 0 00-.468-.066h-.972zm1.014-.966c.388 0 .722.038 1.002.114.284.076.518.18.702.312.184.132.32.29.408.474.088.18.132.376.132.588 0 .132-.018.27-.054.414a1.342 1.342 0 01-.528.768 1.671 1.671 0 01-.564.252c.204.044.39.106.558.186.168.076.312.174.432.294.12.116.212.254.276.414.068.156.102.332.102.528a1.589 1.589 0 01-.72 1.374 2.32 2.32 0 01-.756.33 3.625 3.625 0 01-.894.108h-2.52V7.295h2.424zm6.863 3.528c-.428.02-.788.058-1.08.114-.292.052-.526.12-.702.204a.923.923 0 00-.378.294.639.639 0 00-.114.366c0 .26.076.446.228.558.156.112.358.168.606.168.304 0 .566-.054.786-.162.224-.112.442-.28.654-.504v-1.038zm-3.396-2.67c.708-.648 1.56-.972 2.556-.972.36 0 .682.06.966.18.284.116.524.28.72.492.196.208.344.458.444.75.104.292.156.612.156.96v3.888h-.672a.708.708 0 01-.324-.06c-.076-.044-.136-.13-.18-.258l-.132-.444c-.156.14-.308.264-.456.372a2.804 2.804 0 01-.462.264c-.16.072-.332.126-.516.162-.18.04-.38.06-.6.06-.26 0-.5-.034-.72-.102a1.618 1.618 0 01-.57-.318 1.414 1.414 0 01-.372-.522 1.852 1.852 0 01-.132-.726 1.419 1.419 0 01.33-.906c.12-.14.274-.272.462-.396s.418-.232.69-.324c.276-.092.596-.166.96-.222.364-.06.78-.096 1.248-.108v-.36c0-.412-.088-.716-.264-.912-.176-.2-.43-.3-.762-.3-.24 0-.44.028-.6.084-.156.056-.294.12-.414.192l-.33.186a.631.631 0 01-.324.084.439.439 0 01-.264-.078.716.716 0 01-.174-.192l-.264-.474zm11.602-.858v6.156h-1.482v-2.724h-2.4v2.724h-1.482V7.295h1.482v2.334h2.4V7.295h1.482zm4.192-.096c.456 0 .87.074 1.242.222a2.692 2.692 0 011.578 1.626c.144.392.216.83.216 1.314 0 .488-.072.928-.216 1.32-.144.392-.35.726-.618 1.002a2.653 2.653 0 01-.96.636 3.333 3.333 0 01-1.242.222c-.46 0-.878-.074-1.254-.222a2.712 2.712 0 01-.966-.636 2.922 2.922 0 01-.618-1.002 3.807 3.807 0 01-.216-1.32c0-.484.072-.922.216-1.314.148-.392.354-.724.618-.996.268-.272.59-.482.966-.63a3.397 3.397 0 011.254-.222zm0 5.202c.512 0 .89-.172 1.134-.516.248-.344.372-.848.372-1.512s-.124-1.17-.372-1.518c-.244-.348-.622-.522-1.134-.522-.52 0-.906.176-1.158.528-.248.348-.372.852-.372 1.512s.124 1.164.372 1.512c.252.344.638.516 1.158.516zm4.118-3.192h3.109v1.236h-3.108V9.209zm9.386 1.962a2.1 2.1 0 001.505-.672c.184-.204.326-.44.426-.708.105-.272.157-.564.157-.876 0-.304-.052-.59-.156-.858-.1-.272-.242-.51-.426-.714a2.05 2.05 0 00-1.506-.678v4.506zm-1.53-4.506a2.113 2.113 0 00-.853.192 2.07 2.07 0 00-.654.486 2.174 2.174 0 00-.426.714c-.1.268-.15.554-.15.858 0 .312.05.604.15.876.1.268.242.504.426.708.184.2.402.36.654.48.256.12.54.184.852.192V6.665zm1.53-1.242c.54.016 1.035.118 1.487.306.452.188.84.44 1.164.756.328.316.584.682.768 1.098.184.416.276.86.276 1.332 0 .476-.092.924-.276 1.344-.184.416-.44.782-.768 1.098a3.658 3.658 0 01-1.164.756c-.452.188-.948.29-1.488.306v1.032h-1.53v-1.032a4.149 4.149 0 01-1.482-.306 3.878 3.878 0 01-1.17-.756 3.447 3.447 0 01-.768-1.098 3.312 3.312 0 01-.276-1.344c0-.472.092-.916.276-1.332.184-.416.44-.78.768-1.092a3.732 3.732 0 011.17-.756 4.24 4.24 0 011.482-.312V4.409h1.53v1.014zm6.183 6.432c.168.204.35.348.546.432.2.084.417.126.649.126.224 0 .426-.042.606-.126.18-.084.332-.212.456-.384.127-.172.225-.388.293-.648.068-.264.102-.574.102-.93 0-.36-.03-.664-.09-.912a1.73 1.73 0 00-.246-.612.978.978 0 00-.396-.342 1.206 1.206 0 00-.522-.108c-.308 0-.57.066-.786.198-.216.128-.42.31-.612.546v2.76zm-.078-3.72a3.21 3.21 0 01.858-.69c.32-.176.696-.264 1.128-.264a2 2 0 01.918.21c.28.14.52.344.72.612.205.264.36.592.469.984.112.388.168.834.168 1.338 0 .46-.062.886-.186 1.278a3.095 3.095 0 01-.534 1.02 2.447 2.447 0 01-.834.678c-.324.16-.688.24-1.092.24-.344 0-.638-.052-.882-.156a2.201 2.201 0 01-.654-.444v2.52h-1.482V7.295h.906c.192 0 .318.09.378.27l.12.57zm8.657 2.688c-.428.02-.788.058-1.08.114-.292.052-.526.12-.702.204a.923.923 0 00-.378.294.639.639 0 00-.114.366c0 .26.077.446.229.558.156.112.358.168.606.168.304 0 .566-.054.786-.162.224-.112.442-.28.654-.504v-1.038zm-3.396-2.67c.708-.648 1.56-.972 2.556-.972.36 0 .682.06.966.18.284.116.524.28.72.492.196.208.344.458.444.75.104.292.156.612.156.96v3.888h-.672a.708.708 0 01-.324-.06c-.076-.044-.136-.13-.18-.258l-.132-.444c-.156.14-.308.264-.456.372a2.804 2.804 0 01-.462.264c-.16.072-.332.126-.516.162-.18.04-.38.06-.6.06-.26 0-.5-.034-.72-.102a1.618 1.618 0 01-.57-.318 1.414 1.414 0 01-.372-.522 1.852 1.852 0 01-.132-.726 1.419 1.419 0 01.33-.906c.12-.14.274-.272.462-.396s.418-.232.69-.324c.276-.092.596-.166.96-.222.364-.06.78-.096 1.248-.108v-.36c0-.412-.088-.716-.264-.912-.176-.2-.43-.3-.762-.3-.24 0-.44.028-.6.084-.156.056-.294.12-.414.192l-.33.186a.631.631 0 01-.324.084.439.439 0 01-.264-.078.716.716 0 01-.174-.192l-.264-.474zm11.601-.858v6.156h-1.482v-2.724h-2.4v2.724h-1.482V7.295h1.482v2.334h2.4V7.295h1.482zm5.146.39a.83.83 0 01.69-.39h1.164l-1.434 2.286c-.1.16-.202.29-.306.39a1.15 1.15 0 01-.378.228c.2.06.364.15.492.27.128.116.244.264.348.444l1.44 2.538h-1.026c-.26 0-.462-.044-.606-.132a1.107 1.107 0 01-.366-.378l-.906-1.704a.805.805 0 00-.312-.33.857.857 0 00-.438-.108h-.558v2.652h-1.482V7.295h1.482v2.538h.48c.168 0 .302-.03.402-.09a.772.772 0 00.264-.288l1.05-1.77zm4.374-.39v6.156h-1.488V7.295h1.488zm.204-1.794a.844.844 0 01-.078.36.963.963 0 01-.21.294.995.995 0 01-.3.204.963.963 0 01-.372.072.948.948 0 01-.366-.072 1.018 1.018 0 01-.498-.498.963.963 0 010-.732.995.995 0 01.204-.3.929.929 0 01.294-.198.899.899 0 01.738 0 .912.912 0 01.3.198.943.943 0 01.288.672zm3.821 6.936c.312 0 .558-.076.738-.228.184-.152.276-.36.276-.624a.98.98 0 00-.048-.312.556.556 0 00-.156-.258.771.771 0 00-.312-.168 1.683 1.683 0 00-.492-.06h-1.11v1.65h1.104zM165.63 8.26v1.614h.972c.144 0 .276-.02.396-.06a.854.854 0 00.516-.456.862.862 0 00.024-.624.57.57 0 00-.162-.24.772.772 0 00-.306-.168 1.416 1.416 0 00-.468-.066h-.972zm1.014-.966c.388 0 .722.038 1.002.114.284.076.518.18.702.312.184.132.32.29.408.474.088.18.132.376.132.588 0 .132-.018.27-.054.414a1.342 1.342 0 01-.528.768 1.671 1.671 0 01-.564.252c.204.044.39.106.558.186.168.076.312.174.432.294.12.116.212.254.276.414.068.156.102.332.102.528a1.589 1.589 0 01-.72 1.374 2.32 2.32 0 01-.756.33 3.625 3.625 0 01-.894.108h-2.52V7.295h2.424zm8.021 1.302a.685.685 0 01-.132.132c-.04.032-.1.048-.18.048a.42.42 0 01-.222-.066 3.947 3.947 0 00-.258-.156c-.1-.06-.22-.112-.36-.156a1.55 1.55 0 00-.51-.072c-.26 0-.488.048-.684.144-.196.092-.36.226-.492.402-.128.176-.224.39-.288.642-.064.248-.096.53-.096.846 0 .328.034.62.102.876.072.256.174.472.306.648.132.172.292.304.48.396.188.088.4.132.636.132s.426-.028.57-.084c.148-.06.272-.124.372-.192.1-.072.186-.136.258-.192.076-.06.16-.09.252-.09a.3.3 0 01.27.138l.426.54a2.76 2.76 0 01-.534.486 3.06 3.06 0 01-.6.312 3.09 3.09 0 01-.636.162 4.416 4.416 0 01-.648.048c-.38 0-.738-.07-1.074-.21a2.572 2.572 0 01-.882-.624 3.01 3.01 0 01-.6-.996 3.934 3.934 0 01-.216-1.35c0-.452.064-.87.192-1.254.132-.388.324-.722.576-1.002a2.61 2.61 0 01.936-.666c.372-.16.8-.24 1.284-.24.46 0 .862.074 1.206.222.348.148.66.36.936.636l-.39.54zm3.893 3.792c.336 0 .586-.084.75-.252a.877.877 0 00.252-.648c0-.112-.02-.22-.06-.324a.719.719 0 00-.174-.276.801.801 0 00-.312-.186 1.319 1.319 0 00-.462-.072h-1.098v1.758h1.104zm-.012-2.814c.428 0 .79.052 1.086.156.296.104.536.244.72.42.184.176.316.38.396.612.084.228.126.468.126.72 0 .288-.052.554-.156.798-.1.24-.25.448-.45.624a2.085 2.085 0 01-.726.402 3.05 3.05 0 01-.978.144h-2.52V7.295h1.41v2.28h1.092zm7-1.89a.83.83 0 01.69-.39h1.164l-1.434 2.286c-.1.16-.202.29-.306.39a1.15 1.15 0 01-.378.228c.2.06.364.15.492.27.128.116.244.264.348.444l1.44 2.538h-1.026c-.26 0-.462-.044-.606-.132a1.107 1.107 0 01-.366-.378l-.906-1.704a.805.805 0 00-.312-.33.857.857 0 00-.438-.108h-.558v2.652h-1.482V7.295h1.482v2.538h.48c.168 0 .302-.03.402-.09a.772.772 0 00.264-.288l1.05-1.77zm8.43-.39l-3.354 7.848a.538.538 0 01-.174.234c-.068.056-.174.084-.318.084h-1.104l1.152-2.472-2.49-5.694h1.302c.116 0 .206.028.27.084.068.056.118.12.15.192l1.308 3.192c.044.108.08.216.108.324.032.108.062.218.09.33a32.3 32.3 0 01.108-.33c.036-.112.076-.222.12-.33l1.236-3.186a.437.437 0 01.408-.276h1.188z"/></symbol><symbol viewBox="0 0 122 30" id="molfar" xmlns="http://www.w3.org/2000/svg"><path d="M47.27 20.693l.196-.489a4.01 4.01 0 01.22-.452l8.562-15.239a.563.563 0 01.245-.244.982.982 0 01.342 0h1.1v21.879h-1.271V7.461a8.204 8.204 0 010-.856l-8.587 15.324a.673.673 0 01-.623.403h-.245a.696.696 0 01-.624-.403L37.717 6.592c.015.29.015.58 0 .869v18.687h-1.333V4.22h1.1c.118-.02.238-.02.356 0 .11.05.2.137.256.244l8.856 15.251c.132.317.239.644.318.978zM69.703 10.481a7.413 7.413 0 012.972.563 6.05 6.05 0 012.214 1.602 7.117 7.117 0 011.37 2.446c.329 1.06.49 2.167.477 3.278a10.564 10.564 0 01-.477 3.265 7.128 7.128 0 01-1.37 2.446 5.967 5.967 0 01-2.214 1.602 8.17 8.17 0 01-5.932 0 6.041 6.041 0 01-2.214-1.602 7.043 7.043 0 01-1.382-2.446 10.553 10.553 0 01-.478-3.265c0-1.092.17-2.177.501-3.217.292-.9.762-1.732 1.382-2.446a6.116 6.116 0 012.215-1.602 7.413 7.413 0 012.936-.624zm0 14.676c.84.023 1.676-.14 2.446-.477a4.561 4.561 0 001.725-1.357c.48-.634.83-1.358 1.027-2.128a10.63 10.63 0 00.343-2.801c.01-.94-.106-1.878-.343-2.788a6.113 6.113 0 00-1.027-2.153 4.61 4.61 0 00-1.725-1.37 6.288 6.288 0 00-4.82 0 4.599 4.599 0 00-1.71 1.407 6.115 6.115 0 00-1.04 2.152 10.42 10.42 0 00-.355 2.789c-.01.945.11 1.887.355 2.8a6.1 6.1 0 001.04 2.128 4.562 4.562 0 001.724 1.358 5.726 5.726 0 002.36.477v-.037zM82.51 3.596v22.552h-1.48V3.596h1.48zM88.538 26.148V12.34l-2.126-.146c-.304 0-.454-.13-.454-.392v-.599h2.618V9.258a7.178 7.178 0 01.28-2.323c.201-.617.53-1.184.967-1.663a3.914 3.914 0 011.48-1.053 5.383 5.383 0 011.933-.33c.324 0 .647.029.966.085.293.05.58.132.856.245v.71c0 .146-.11.22-.293.22h-.502a5.555 5.555 0 00-.783 0 4.233 4.233 0 00-1.406.22 2.74 2.74 0 00-1.113.72 3.39 3.39 0 00-.722 1.297 6.505 6.505 0 00-.257 1.957v1.908h4.99v1.1h-4.964v13.798h-1.47zM107.792 26.148a.527.527 0 01-.575-.429l-.22-1.932c-.389.391-.797.763-1.223 1.113a7.57 7.57 0 01-1.309.831c-.467.23-.96.402-1.468.514a7.9 7.9 0 01-1.737.183 5.114 5.114 0 01-1.529-.232 3.793 3.793 0 01-1.32-.71 3.484 3.484 0 01-.918-1.222 4.255 4.255 0 01-.355-1.81 3.201 3.201 0 01.563-1.81 4.587 4.587 0 011.75-1.456 11.51 11.51 0 013.057-.99 26.606 26.606 0 014.428-.526v-1.566a5.16 5.16 0 00-.954-3.326 3.29 3.29 0 00-2.74-1.15 5.175 5.175 0 00-1.896.306 6.74 6.74 0 00-1.321.685 8.281 8.281 0 00-.88.685.954.954 0 01-.576.305.502.502 0 01-.464-.28l-.27-.453a8.953 8.953 0 012.546-1.835 7.094 7.094 0 013.02-.624 5.505 5.505 0 012.166.392c.598.249 1.127.64 1.541 1.137.426.525.738 1.133.917 1.786a8.19 8.19 0 01.404 2.372v10.042h-.636zm-6.201-.82a6.615 6.615 0 001.65-.196 6.116 6.116 0 001.395-.538 6.85 6.85 0 001.223-.832c.375-.318.742-.664 1.101-1.04v-4.01c-1.27.022-2.537.132-3.792.33-.9.134-1.779.38-2.617.733a3.84 3.84 0 00-1.517 1.113 2.36 2.36 0 00-.49 1.468c-.01.461.077.92.258 1.345a2.581 2.581 0 001.651 1.468c.37.108.753.161 1.138.159zM113.027 26.147V10.726h.77a.55.55 0 01.38.11.537.537 0 01.134.367l.123 3.253a7.338 7.338 0 011.993-2.899 4.538 4.538 0 013.01-1.101 5.31 5.31 0 011.284.146c.387.097.76.241 1.113.428l-.197 1.028a.281.281 0 01-.306.245.832.832 0 01-.269-.061l-.404-.135a5.273 5.273 0 00-1.48-.196A3.963 3.963 0 00116.304 13a7.754 7.754 0 00-1.761 3.119v10.027h-1.516zM27.846 8.561l-.146.098-5.664 5.711a.367.367 0 01-.293.123h-5.272l.49.452-.514.526h5.32a.341.341 0 01.27.11l5.663 5.76.122.123h-5.296a.39.39 0 01-.306-.123l-5.7-5.699-.086-.098-.733.746h.085l4.501 4.5 1.223 1.224c.044.046.07.107.074.171v5.43l-.122-.11-3.866-3.865-1.859-1.859a.33.33 0 01-.11-.256v-5.321l-.501.514-.465-.513v5.393a.341.341 0 01-.11.27l-5.712 5.71a.722.722 0 00-.086.123v-5.394a.257.257 0 01.086-.195l5.736-5.736.098-.086-.734-.721-.086.073-5.724 5.7a.39.39 0 01-.306.122H2.466l.086-.123L8.3 15.593a.317.317 0 01.257-.098h5.321l-.49-.501.49-.453h-5.32a.343.343 0 01-.27-.11L2.576 8.659l-.11-.123h5.382a.306.306 0 01.281.086l4.795 4.807.942.941.073.073.71-.709-.074-.073-5.773-5.774a.318.318 0 01-.098-.244V2.287l.098.086 5.76 5.76a.293.293 0 01.099.232v5.345l.501-.502.465.49V8.414a.355.355 0 01.11-.281l5.724-5.724.123-.11v5.418a.281.281 0 010 .171l-5.737 5.736-.11.074.758.758a.731.731 0 01.086-.123l5.712-5.723a.319.319 0 01.245-.098h5.345l-.037.049zM15.15 15.679l.685-.685-.673-.673-.685.685.673.673z"/><path d="M2.442 17.281L.167 15.006l2.312-2.299 2.287 2.275-2.324 2.299zM27.859 17.292l-2.312-2.298 2.324-2.312 2.275 2.311-2.287 2.3zM17.449 27.714l-2.287 2.285-2.312-2.31 2.287-2.275 2.313 2.3zM17.462 2.3l-2.287 2.297-2.3-2.31L15.162 0l2.3 2.3z"/><defs><linearGradient id="epaint0_linear" x2="1" gradientUnits="userSpaceOnUse" gradientTransform="matrix(21.6742 0 0 21.6714 0 .137)"><stop stop-color="#D8291E"/><stop offset="1" stop-color="#C5001E"/></linearGradient><linearGradient id="epaint1_linear" x2="1" gradientUnits="userSpaceOnUse" gradientTransform="matrix(161.779 0 0 181.244 725.612 171.158)"><stop stop-color="#D8291E"/><stop offset="1" stop-color="#C5001E"/></linearGradient><linearGradient id="epaint2_linear" x2="1" gradientUnits="userSpaceOnUse" gradientTransform="matrix(1.79081 0 0 27.2879 98.569 295.544)"><stop stop-color="#D8291E"/><stop offset="1" stop-color="#C5001E"/></linearGradient><linearGradient id="epaint3_linear" x2="1" gradientUnits="userSpaceOnUse" gradientTransform="matrix(68.2517 0 0 166.942 642.476 224.816)"><stop stop-color="#D8291E"/><stop offset="1" stop-color="#C5001E"/></linearGradient><linearGradient id="epaint4_linear" x2="1" gradientUnits="userSpaceOnUse" gradientTransform="matrix(104.216 0 0 147.777 900.231 192.206)"><stop stop-color="#D8291E"/><stop offset="1" stop-color="#C5001E"/></linearGradient><linearGradient id="epaint5_linear" x2="1" gradientUnits="userSpaceOnUse" gradientTransform="matrix(63.7603 0 0 113.604 816.907 202.417)"><stop stop-color="#D8291E"/><stop offset="1" stop-color="#C5001E"/></linearGradient><linearGradient id="epaint6_linear" x2="1" gradientUnits="userSpaceOnUse" gradientTransform="matrix(528.166 0 0 528.098 59.984 86.915)"><stop stop-color="#D8291E"/><stop offset="1" stop-color="#C5001E"/></linearGradient><linearGradient id="epaint7_linear" x2="1" gradientUnits="userSpaceOnUse" gradientTransform="matrix(17.2924 0 0 17.1982 2.254 54.568)"><stop stop-color="#D8291E"/><stop offset="1" stop-color="#C5001E"/></linearGradient><linearGradient id="epaint8_linear" x2="1" gradientUnits="userSpaceOnUse" gradientTransform="matrix(17.3844 0 0 17.4284 97.684 54.96)"><stop stop-color="#D8291E"/><stop offset="1" stop-color="#C5001E"/></linearGradient><linearGradient id="epaint9_linear" x2="1" gradientUnits="userSpaceOnUse" gradientTransform="matrix(17.2464 0 0 17.1983 49.992 102.387)"><stop stop-color="#D8291E"/><stop offset="1" stop-color="#C5001E"/></linearGradient><linearGradient id="epaint10_linear" x2="1" gradientUnits="userSpaceOnUse" gradientTransform="matrix(17.2005 0 0 17.2442 49.904 7.15)"><stop stop-color="#D8291E"/><stop offset="1" stop-color="#C5001E"/></linearGradient></defs></symbol><symbol viewBox="0 0 200 42" id="sff_logo" xmlns="http://www.w3.org/2000/svg"><path fill-rule="evenodd" clip-rule="evenodd" d="M163.997 39.677c.382.03 1.205 0 1.146.617.03.617-.734.529-1.146.558v-1.175zm-57.134 0c.411.03 1.205 0 1.146.617.029.617-.735.5-1.146.558a7.687 7.687 0 010-1.175zM130.61 40c.147-.47.323-.97.499-1.44l.529 1.41-1.028.03zm29.596 0c.147-.47.323-.97.499-1.44.177.47.353.94.529 1.44h-1.028zm-43.85 0c.176-.47.352-.94.499-1.44.177.47.382.94.529 1.44h-1.028zm40.058-1.587c.441.03 1.235 0 1.088.647 0 .587-.706.47-1.088.529v-1.176zm-10.227 1.176v-1.176c.44.03 1.234 0 1.116.647-.029.587-.734.5-1.116.529zm-7.495 1.263v-2.44c.588.03 1.381 0 1.617.648.117.47.147 1.087-.236 1.44-.352.382-.94.294-1.381.352zm-31.829-2.468c.352.058.705.147 1.028.235-.088.264 0 .705-.382.764l-.646.117c0-.382-.03-.734 0-1.117zm-6.613.029c.499.059 1.087-.03 1.469.382.353.5.324 1.234-.088 1.705-.353.382-.911.294-1.381.352a33.07 33.07 0 010-2.44zm-17.693 0c.44 0 1.205 0 1.117.647-.03.587-.706.47-1.117.529v-1.176zm85.613.03c.471-.177 1.088-.03 1.294.47.382.734.117 1.94-.853 1.998-1.322.118-1.557-2.028-.441-2.469zm-4.173-.03c.353.03.676.088.999.206 0 .176-.058.529-.088.705l-.911.176v-1.087zm-87.906 0c.5.059 1.117-.03 1.47.411.323.47.293 1.176-.06 1.646-.352.412-.94.324-1.44.353 0-.794 0-1.587.03-2.41zm108.42-.294c.676.206.706 1.058 1.088 1.558.294-.559.558-1.146.94-1.675.088.529-.323.97-.529 1.44-.352.529-.235 1.205-.382 1.792-.206-.47-.117-.97-.264-1.44-.294-.529-.617-1.058-.853-1.675zm-1.998.088c.088 0 .235 0 .294-.03-.03 1.03.088 2.058-.088 3.087-.177-.235-.265-.5-.236-.764.03-.764.03-1.529.03-2.293zm-3.586 0c.088 0 .235 0 .294-.03 0 .442 0 .883.03 1.323.499-.5.852-1.175 1.528-1.44-.353.559-.823 1.029-1.264 1.5.441.528.999.969 1.293 1.616-.646-.265-.999-.94-1.528-1.382-.029.47-.059.97-.118 1.47-.47-.911-.117-2.028-.235-3.057zm-3.468.676c.03-.764 1.235-1.058 1.675-.44-.411.029-.969-.206-1.293.146-.294.647.5.853.882 1.147.5.235.558.999.088 1.263-.382.265-.882.118-1.322.088 0-.088-.059-.264-.089-.352.441.088.941.294 1.323-.03.411-.97-1.323-.91-1.264-1.822zm-3.997-.823c.706.647.706 1.705 1.146 2.528.471-.794.559-1.822 1.147-2.528 0 .706-.382 1.352-.588 1.999-.177.411-.265.882-.647 1.146-.352-1.058-.852-2.057-1.058-3.145zm-3.497.177c.852-.441 1.939.205 1.969 1.175.176.94-.617 1.999-1.646 1.734-1.381-.206-1.528-2.38-.323-2.91zm-4.262-.06c.5.06 1.205-.146 1.528.354.236.352-.058.705-.264.999.353.235.647.676.382 1.087-.294.617-1.117.441-1.675.47.029-.97.029-1.94.029-2.91zm-3.086-.087c.382.235.47.676.617 1.028.235.706.588 1.382.706 2.116-.324-.235-.47-.617-.617-.97h-1.176a6.326 6.326 0 01-.5 1 .824.824 0 010-.647c.324-.852.647-1.675.97-2.527zm-4.497.088c.559.03 1.323-.147 1.646.411.235.47-.088.911-.47 1.176.294.44.529.882.735 1.352-.088 0-.235-.03-.323-.059-.294-.529-.529-1.322-1.264-1.293-.03.5 0 1-.147 1.499-.323-.97-.088-2.058-.177-3.086zm-3.497.088c.5-.235 1.234-.264 1.617.206-.412 0-.853-.118-1.264-.06-.911.295-1.088 1.647-.441 2.235.382.323.911.235 1.352.147v-.912h-.617v-.264h.911v1.293c-.529.176-1.117.353-1.646.088-.999-.529-.911-2.233.088-2.733zm-6.73-.088c.558.03 1.41-.176 1.704.5.147.47-.176.822-.529 1.087.265.411.529.852.764 1.293-.088 0-.235.03-.323.03-.323-.53-.529-1.382-1.322-1.323v1.322h-.294v-2.91zm-3.321 0c.529.03 1.116-.147 1.557.206-.441.058-.852.058-1.293.058V39.5c.382 0 .852-.029 1.205.177-.382.088-.823.117-1.205.147v.97c.441.029.911.029 1.352.117-.47.323-1.087.147-1.646.176.03-.97.03-1.91.03-2.91zm-4.203.03c.705 0 1.558-.148 2.057.47.47.675.353 1.763-.382 2.204-.5.323-1.117.235-1.675.235v-2.91zm-4.291-.03h.353c.529.793 1.116 1.616 1.645 2.41.03-.764-.029-1.529.03-2.293l.264-.235c.03 1.058.059 2.087-.029 3.145-.823-.705-1.293-1.734-1.94-2.557v2.44h-.294v-2.91h-.029zm-3.115.03h.293c.265.558.471 1.175.706 1.763.147.411.411.852.264 1.293-.205-.324-.352-.676-.529-1h-1.205c-.147.324-.235.765-.617.912.294-1 .676-1.999 1.088-2.969zm-3.851 1.41c-.264-.53-.823-.97-.734-1.617.352.383.617.853.881 1.323.382-.411.588-1 1.117-1.264-.206.53-.558 1-.823 1.529.206.529.559.999.853 1.498h-.353c-.235-.411-.5-.823-.735-1.234-.294.47-.588.97-.999 1.352.029-.588.5-1.058.793-1.587zm-4.026-1.44c.529.03 1.117-.147 1.558.206-.441.058-.853.058-1.294.058V39.5h1.088l-.029.265h-1.029v1.029h1.205l.029.264h-1.528c0-.94-.029-1.91 0-2.88zm-3.204 0h.265v2.616c.441.029.94-.089 1.293.235-.529.058-1.058.058-1.587.058 0-.97 0-1.91.029-2.91zm-3.115.03a.69.69 0 00.235-.06c.47.97.764 1.999 1.146 2.969-.47 0-.47-.559-.646-.852h-1.235c-.176.323-.205.822-.646.91.353-.999.705-1.998 1.146-2.968zm-7.024-.177c.529.411.705 1.087 1.028 1.646.324-.559.5-1.264 1.059-1.646-.147.646-.529 1.175-.823 1.763-.147.47-.089.97-.265 1.44-.147-.47-.088-.97-.235-1.44-.265-.558-.647-1.087-.764-1.763zm-3.204.147c.5.059 1.205-.147 1.529.353.235.352-.03.734-.265.999.353.235.647.676.412 1.087-.294.617-1.117.441-1.676.47v-2.91zm-6.583 0c.529.03 1.058-.03 1.558.147.999.411.999 1.998.117 2.527-.499.324-1.117.235-1.675.265-.03-.97-.03-1.97 0-2.94zm-3.35.03h1.44l-.03.234H96.9v1.088h1.058v.264H96.9v1.029h1.205v.264h-1.499v-2.88zm-3.821.029c.734 0 1.528-.206 2.233.146-.323.06-.676.089-.999.118v2.616h-.294V38.5c-.323-.088-.705 0-.94-.264zm-2.88.029c.47-.235 1.116-.294 1.469.147-.411 0-.793-.088-1.205 0-.911.323-1.087 1.763-.294 2.322.47.294 1 .088 1.499.088-.529.529-1.499.47-1.97-.118-.558-.734-.352-1.998.5-2.439zm-4.027-.059a7.51 7.51 0 011.617.059c-.383.265-.853.176-1.294.206v1.058h1.058l-.029.264h-1.029v1.029h1.205v.264h-1.528v-2.88zm-3.615-.03c.588.06 1.47-.175 1.705.53.176.47-.236.793-.53 1.058.294.44.53.911.765 1.381-.5-.088-.588-.617-.853-.97-.117-.352-.5-.323-.793-.411 0 .44-.03.882-.03 1.322h-.293c.029-.97.029-1.94.029-2.91zm-2.292.03h.293v2.91h-.293v-2.91zm-4.174-.03c.647.03 1.382-.117 1.91.354.647.617.53 1.91-.293 2.38-.47.294-1.088.206-1.617.235 0-1-.03-1.969 0-2.968zm79.354-15.929c2.527-.734 5.525.118 7.053 2.322 1.352 1.852 1.47 4.409.529 6.466-.999 2.38-3.732 3.703-6.23 3.468-2.028-.147-4.027-1.293-5.026-3.115-.764-1.352-.794-2.969-.617-4.468.294-1.528 1.146-2.997 2.498-3.79a6.776 6.776 0 011.793-.883zm-33.358.206c1.117-.323 2.263-.617 3.409-.353 1.499.265 2.968.912 3.938 2.117.764.852 1.117 1.998 1.323 3.115h-12.432c.147-2.175 1.704-4.144 3.762-4.879zm-30.302-.353c1.47-.264 2.998-.058 4.32.647 1.323.617 2.323 1.822 2.852 3.174.764 2.057.411 4.467-.882 6.23-1.705 2.176-4.879 2.91-7.436 1.911-1.851-.705-3.409-2.351-3.762-4.32-.235-1.587-.176-3.292.676-4.703.823-1.616 2.498-2.556 4.233-2.939zm-39.97.147c1.558-.411 3.262-.294 4.702.441 1.676.764 2.88 2.38 3.263 4.144.294 1.47.117 3.027-.559 4.38-.617 1.351-1.851 2.321-3.174 2.85-2.939 1.176-6.76-.03-8.141-2.968-.911-2.057-.794-4.614.47-6.466.764-1.234 2.087-1.97 3.439-2.38zm136.605-1.44c.382 0 .765 0 1.147-.03.646 1.382 1.116 2.822 1.645 4.233 1.058 2.822 2.087 5.643 3.145 8.464.706-1.44 1.117-2.968 1.705-4.438.999-2.733 1.998-5.466 3.027-8.229H200c-2.498 6.76-5.026 13.52-7.553 20.28h-1.146c.646-1.94 1.41-3.85 2.086-5.79.118-.265.059-.53-.029-.794-1.764-4.555-3.527-9.14-5.232-13.696zm-4.967 14.842V20.808h1.088V35.68c-.382 0-.735-.03-1.088-.03zm-31.535-12.667c2.292-2.322 6.084-2.704 8.993-1.323 1.146.53 2.057 1.44 2.763 2.47v-3.322h1.029c.029 4.938 0 9.905 0 14.872h-1.059v-3.204c-1.116 1.646-2.939 2.733-4.849 3.116-2.234.293-4.702-.089-6.436-1.617-3.145-2.675-3.351-8.082-.441-10.992zm-30.213-1.616c1.322-.412 2.704-.647 4.085-.412 1.91.324 3.762 1.323 4.849 2.94.911 1.322 1.323 2.938 1.264 4.555h-13.696c0 1.763.735 3.585 2.175 4.643 2.146 1.793 5.437 1.91 7.759.382 1.323-.91 2.293-2.35 2.528-3.967h1.175c-.235 1.91-1.263 3.762-2.88 4.82-1.646 1.234-3.821 1.499-5.849 1.234-2.174-.294-4.144-1.646-5.231-3.585-.999-1.999-1.146-4.38-.382-6.466.617-1.97 2.322-3.468 4.203-4.144zm-12.844-.47c2.263-.089 4.526-.089 6.789-.03v1.146h-5.496c-1.645 0-3.409.177-4.761 1.264-2.762 2.145-3.115 6.613-.823 9.228.97 1.176 2.469 1.91 3.997 1.999 2.352.147 4.732.03 7.083.088v1.088h-7.112c-2.146-.06-4.144-1.235-5.378-2.969-.853-1.263-1.176-2.792-1.323-4.32.059-2.116.794-4.291 2.41-5.702 1.264-1.146 2.939-1.763 4.614-1.793zM86.201 24.51c1.029-1.88 2.998-3.203 5.085-3.526 2.028-.353 4.232 0 5.937 1.234.734.5 1.322 1.205 1.851 1.91v-3.32h1.029c.029 4.937 0 9.904.029 14.87h-1.058v-3.203c-1.117 1.675-2.998 2.792-4.996 3.145-1.999.235-4.144-.059-5.79-1.264-1.587-1.058-2.586-2.85-2.91-4.702-.352-1.793.03-3.586.823-5.144zm-24.129-3.703h1.058v2.028c1.029-1.205 2.557-2.057 4.173-1.998v1.087c-1.204-.03-2.439.44-3.203 1.41-.764.824-.911 2-.911 3.057-.03 3.086 0 6.172 0 9.288H62.1c-.029-4.967-.029-9.934-.029-14.872zm-39.06.735c.882-.617 1.999-.735 3.087-.735h8.993v1.146H25.54c-.911 0-1.88.324-2.44 1.088-.675.94-.852 2.322-.235 3.321.5.882 1.47 1.499 2.499 1.499h6.084c1.351.03 2.615.882 3.232 2.087.882 1.763.294 4.202-1.47 5.202a3.39 3.39 0 01-1.91.5c-3.32.029-6.612 0-9.933 0v-1.088h9.375c.735 0 1.499-.118 2.116-.53 1.293-.91 1.529-2.997.441-4.143-.558-.617-1.381-.94-2.204-.94h-5.908c-1.263 0-2.498-.677-3.144-1.764-1.235-1.793-.706-4.38.97-5.643zm144.218.94c1.117-1.234 2.851-1.822 4.467-1.675.617.059 1.235.294 1.822.47.412.177.823-.088 1.235-.205 2.41-.882 5.408.264 6.524 2.616.353.734.5 1.528.471 2.321v9.61h-1.058V27.42c0-1.058.117-2.175-.382-3.145-.588-1.322-1.911-2.204-3.321-2.38-.853-.177-1.705.088-2.528.352-.029 4.468 0 8.935 0 13.402h-1.087V22.366c-1.382-.647-3.057-.676-4.409.059-1.234.764-2.057 2.145-2.028 3.585v9.61h-1.087v-9.433c-.03-1.323.44-2.704 1.381-3.704zM59.691 20.808h1c.117 4.938.03 9.905.058 14.842h-1.058v-3.203c-1.146 1.675-3.027 2.821-5.025 3.145-1.999.235-4.144-.089-5.79-1.294-1.617-1.087-2.616-2.968-2.91-4.879-.323-1.616.059-3.291.735-4.76.882-1.735 2.586-3.028 4.467-3.527 2.293-.588 4.908-.265 6.819 1.175.676.5 1.205 1.146 1.704 1.793 0-1.088-.029-2.204 0-3.292zM185.628 35.65V15.4h1.088v20.25h-1.088zm-2.469-20.25h1.058v2.47h-1.058V15.4zm-40.587 1.91c1.528-1.292 3.585-1.939 5.584-1.88v1.087c-1.382.059-2.792.235-3.968.97-1.234.735-2.087 1.97-2.557 3.292 1.999.03 3.997 0 6.025 0v1.087c-2.116.088-4.261 0-6.378.03-.176 1.704-.117 3.438-.117 5.172v8.553h-1.088V23.306c-.029-2.204.794-4.496 2.499-5.995zm-64.189-.058c1.529-1.234 3.527-1.881 5.496-1.822v1.087c-1.38.059-2.792.235-3.967.97-1.235.735-2.087 1.97-2.557 3.292h6.025v1.117c-2.116.088-4.232 0-6.378.03-.059.763-.147 1.527-.147 2.292V35.62h-1.087V23.306c0-2.233.823-4.585 2.615-6.054zM21.573 0c.058 0 .146.03.235.059a933.059 933.059 0 005.084 15.312c5.055 0 10.08 0 15.136.03-1.47.205-2.998.176-4.467.352v4.996h6.436v1.088h-6.436c-.03 1.852 0 3.732 0 5.584a8.016 8.016 0 00.852 3.762c.47.794 1.146 1.47 1.852 2.087 1.234.852 2.703 1.263 4.173 1.293v1.087a7.967 7.967 0 01-6.084-2.615c-1.322-1.529-1.91-3.586-1.88-5.585V15.87c-3.557.089-7.054.677-10.581.618-1.264-4.262-2.851-8.435-4.233-12.638-1.41 4.232-2.85 8.435-4.232 12.667-4.467 0-8.905-.03-13.372.03.382.44.852.764 1.322 1.087 3.145 2.322 6.32 4.644 9.464 6.936-.294 1.293-.764 2.498-1.146 3.762-.882 2.91-1.91 5.76-2.763 8.67 3.556-2.498 7.142-4.967 10.698-7.406-3.85 3.174-7.759 6.29-11.609 9.434-.5.382-.94.852-1.528 1.117 1.646-4.996 3.262-10.051 4.908-15.048C8.905 21.866 4.409 18.692 0 15.43c5.467-.087 10.963-.029 16.43-.029 1.704-5.143 3.467-10.257 5.142-15.4z"/></symbol></svg>