<svg width="18" height="22" viewBox="0 0 18 22" fill="none" xmlns="http://www.w3.org/2000/svg">
<path d="M13.5435 2.40419C15.5586 3.56759 16.2599 6.18514 15.0965 8.20021L8.88605 18.9571C8.81762 19.0756 8.73666 19.1474 8.62606 19.2021C7.59405 20.3052 5.90798 20.5566 4.57448 19.7867C2.97429 18.8629 2.45284 16.8233 3.35961 15.2528L8.13296 6.98506C8.8002 5.82937 10.2492 5.44111 11.4049 6.10835C12.5606 6.77559 12.9489 8.2246 12.2816 9.3803L8.5519 15.8404C8.36371 16.1663 7.94303 16.279 7.61706 16.0908C7.2911 15.9026 7.17838 15.482 7.36657 15.156L11.0963 8.69594C11.3871 8.19218 11.2243 7.58453 10.7206 7.29368C10.2464 7.01994 9.60914 7.16565 9.31829 7.66942L4.54494 15.9371C4.01457 16.8557 4.3402 18.071 5.25884 18.6014C6.17747 19.1318 7.39276 18.8061 7.92313 17.8875L13.9112 7.51585C14.6982 6.15272 14.2223 4.37652 12.8592 3.58952C11.496 2.80252 9.71982 3.27845 8.93282 4.64158L3.98838 13.2056C3.80018 13.5316 3.3795 13.6443 3.05354 13.4561C2.72757 13.2679 2.61485 12.8472 2.80305 12.5212L7.73038 3.98686C8.91088 1.94216 11.4988 1.22368 13.5435 2.40419Z" fill="#828282"/>
</svg>
